<?xml version="1.0" encoding="UTF-8"?>
<svg id="Layer_1" data-name="Layer 1" xmlns="http://www.w3.org/2000/svg" xmlns:xlink="http://www.w3.org/1999/xlink" viewBox="0 0 1266.9 1703.5">
  <defs>
    <style>
      .cls-1 {
        fill: url(#linear-gradient);
      }

      .cls-1, .cls-2, .cls-3 {
        stroke-width: 0px;
      }

      .cls-2 {
        fill: #f6f8f8;
      }

      .cls-3 {
        fill: #032b49;
      }
    </style>
    <linearGradient id="linear-gradient" x1="633.45" y1="1703.5" x2="633.45" y2="0" gradientUnits="userSpaceOnUse">
      <stop offset="0" stop-color="#fb5343"/>
      <stop offset="1" stop-color="#059dff"/>
    </linearGradient>
  </defs>
  <path class="cls-1" d="M1056.89,481.62c57.27,0,112.25.07,167.24-.03,29.3-.05,42.86,12.83,42.77,42.33-.49,148.06.99,296.16-3.39,444.17-3.36,113.28-10.81,226.36-23.79,339-2.9,25.19-5.75,50.38-8.51,75.58-2.59,23.68-14.53,41.79-34.02,54.57-114.46,75.06-237.87,133.03-362.37,188.82-51.6,23.12-104.09,44.25-155.52,67.74-28.55,13.04-54.8,12.73-83.82.3-103.96-44.54-207.09-90.84-309.43-139-32.74-15.41-63.88-33.79-96.62-48.97-24.91-11.55-47.51-27.09-72.27-39.02-20.25-9.76-38.3-24.33-56.62-37.73-16.41-12.01-22.69-29.94-24.87-49.48-9.6-86.13-18.45-172.29-23.61-258.86C.27,923.27,1.63,725.27.01,527.32c-.08-9.78-.01-19.67,5.01-28.35,7.2-12.46,18.4-17.59,32.83-17.49,55.42.36,110.84.14,166.26.62,9.18.08,13.79-2.51,17.93-11.32,58.27-124.29,117.06-248.34,175.76-372.43,9.57-20.24,19.05-40.52,29.06-60.54,16.72-33.42,48.25-46.53,82.6-31.79,47.28,20.28,93.71,42.55,140.4,64.19,114.9,53.26,229.74,106.64,344.6,159.99,26.79,12.44,53.62,24.8,80.3,37.47,43.85,20.82,55.84,55.46,35.21,99.06-17.79,37.59-34.91,75.5-53.08,114.9ZM1049.59,978.03c1.07.19,2.38,2.69,3.11-.33-1.05.13-2.09.27-3.14.42.18.31.59.81.51.91-.79.96-.68,1.23.45.9-.31-.63-.62-1.27-.93-1.9ZM518.95,1145.82c-.33.59-.67,1.19-1,1.78.4.15.8.29,1.21.44-.12-.71-.24-1.42-.36-2.14-.71-.19-1.42-.4-2.14-.54-.06-.01-.21.35-.31.53.89-.04,1.77-.07,2.61-.08ZM648.14,1290.07c-.35.18-.83.6-1.02.49-1.2-.66-1.47-.47-.9.71l1.96-1.19c-1.37,2.32-.66,3.76,1.91,4.21.39.07.93-.73,1.4-1.12-1.12-1.03-2.24-2.06-3.36-3.09ZM719.5,752.37c1.54-.01,3.08-.03,4.62-.07,0,0,.01-.6,0-.6-1.53-.05-3.06-.08-4.58-.11.34-.62.68-1.24,1.02-1.85-.34-.1-.69-.21-1.03-.31.02.71.04,1.42.07,2.13l.62.38s-.51.53-.45.56c-.25,1.01-.5,2.03-.75,3.04.59-.18,1.18-.36,1.77-.54-.43-.87-.87-1.75-1.3-2.62ZM862.47,1270.63c-1.18,1.42-2.8,2.74-1.31,4.84.13.18.95.18,1.11-.02,1.36-1.7,1.32-3.43-.05-5.1,1.96,1.05,2.84.11,2.94-1.77.03-.59-.58-1.21-.89-1.82-.6,1.29-1.2,2.57-1.79,3.86ZM925,698.95c3.2-.15,3.57-1.97,2.68-4.54-.56,1.68.12,4.03-2.42,4.66-.11.78-.23,1.56-.3,2.35,0,.03.45.1.69.16-.22-.88-.44-1.75-.66-2.63ZM920.96,887.31c.05,1.19.35,2.43.08,3.54-.26,1.08-1.09,2.03-1.67,3.03.32,0,.64-.01.96-.02-.24-.86-.75-1.74-.67-2.56.15-1.46.67-2.89,1.06-4.29.95.07,1.89.13,2.84.2-.07-.37-.14-.74-.2-1.1-.8.4-1.59.81-2.39,1.21ZM987.58,824.78c-2.69-.43-2.84,2.03-3.91,3.44,1.48.22,2.96.43,4.44.65.24,2.58.48,5.16.84,8.99,4.38-3.25,6.88-6.33,8.8-10.5-4.51-1.92-5.72,6.9-9.96,1.75-2.02-1.35-.65-3.04-.48-4.63.3-.29.55-.72.91-.83,1.4-.44,1.43-.81.05-1.23-.23.79-.46,1.58-.7,2.36ZM775.16,776.96c.59-.9,1.18-1.8,1.77-2.69-.39-.15-.78-.29-1.17-.44-.14,1.03-.28,2.07-.43,3.1,2.71-.38,4.99,3.42,7.95.78-2.61-1.76-5.32-2.07-8.13-.75ZM556.58,571.69c1.26-2.68,2.52-5.36,3.77-8.04-3.99,1.77-8.27,3.48-3.76,8.21-1.26-3.31-2.75-1.74-4.01-.08-.82,1.08-.56,2.77.81,2.63,1.14-.12,2.13-1.75,3.19-2.71ZM565.96,1268.58c3.37-3.47,4.86-7.24,1.49-11.8-.6,3.9-3.25,7.47-1.51,11.76-2.01-1.71-3.46-.65-4.91.91-1.51,1.61.72,1.69.95,2.57-3.64-3.58-5.2-1.09-6.06,2.28-.29,1.15-.75,3.92,1.3,3.42,2.45-.6,4.1-3.06,4.48-5.9,1.09-1.52,4.11-.49,4.26-3.24ZM591.73,859.49c-.71.06-1.04-2.78-2.08-.28l2.39-.04c4.67,2.39-2.03,5.53.41,8.12,7.7-3.47-1-5.18-.72-7.79ZM928.72,884.95c2.14,2.52-5.7,5.25.89,8.18.64-3.26-4.72-5.64-1.17-8.5,2.06,1.08,3.88,1.15,4.65-1.48.15-.52-.51-1.77-1.01-1.9-3.27-.84-2.55,2.16-3.36,3.7ZM717.84,585.2c7.06,1.31,7.16-3.43,7.2-8.22.97.19,1.94.39,2.91.58.04-.4.07-.81.11-1.21-.97.27-1.94.55-2.91.82-3.38,1.89-6.95,3.62-7.05,8.3-1.14,1.36-4.48.41-3.8,3.55.1.47,1.33,1.12,1.9,1.01,3.19-.62,1.17-3.17,1.64-4.83ZM783.61,770.31c-.67.28-1.33.56-2,.84.25.38.5.75.75,1.13.38-.67.77-1.34,1.15-2.01-.42-3.07,5.02-4.55,2.23-8.26q-7.82,4.42-2.14,8.31ZM916.23,715.14c1.8-3.96,5.27-5.98,9.15-7.48-6.23-1.05-9.43,1.29-8.95,7.73l-1.69-.07c.2.5.41.99.61,1.49.3-.56.59-1.12.89-1.67ZM230.87,1154.42c-3.51.18-6.24,1.48-7.33,5.13-1.26,1.33-2.52,2.65-3.78,3.98.38.12.78.39,1.14.34,3-.38.9-3.41,2.35-4.61,7.36,5.26,6.18-1.56,7.29-5.14,2.89.13,3.17-1.79,3.02-3.95-.02-.29-.69-.82-.91-.76-2.84.84-1.28,3.3-1.77,5.01ZM250.76,859.67c6.03.59,3.67-4.05,5.37-6.95-5.84.52-5.66,3.72-5.06,7.15-1.48.2-4.15.2-4.23.64-.42,2.44,2.27,3.43,3.49,3.16,1.56-.35,3.21-2.33.42-4ZM737.32,563.82c-7.77-1.25-7.07,4.87-9.31,9.9,6.61-1.33,6.23-7.01,8.99-10.11.62-1.78,3.23-2.86,1.91-5.24-.15-.27-1.75-.21-2.14.2-1.71,1.85-1.13,3.65.54,5.24ZM697.23,878.88c-2.32,3.85-8.27,6.22-4.27,15.36.92-7.23,5.85-10.16,4.23-15.6,2.86.41,3.5-.56,3.64-6.17-1.39,2.49-2.49,4.45-3.6,6.42ZM783.76,812.12c1.71.76-.01,4.7,3.32,3.72.78-.23,1.89-2.21,1.62-2.69-1.28-2.29-3.39-1.07-5.26-.73.11-.4.3-.8.31-1.2,0-.3-.19-.83-.38-.88-6.77-1.59-6.6,4.05-8.56,6.93,7.41,4.82,2.45-8.18,8.95-5.15ZM458.13,1051.23q-8.86,2.8-2.15,10.72c.62-3.56,1.25-7.21,1.8-10.91,2.5-1.8,5.01-3.59,8.49-6.09q-7.62,1.1-8.15,6.28ZM656.71,1254.88c-5.22,4.56-4.35-5.18-8.58-3.4.24,5.08,1.82,10.39,7.1,11.1,2.51.34,4.63-4.55,1.34-7.96,5.24,3.84,5.68-1.94,6.84-4.06,1.66-3.05-3.04-3.04-3.49-2.96-4.27.79-1.16,5.2-3.22,7.28ZM431.42,877.61l-1.85-1.73c-.12.36-.44.81-.33,1.06.57,1.23,1.42,1.28,2.38.38-1.02,3.24,1.6,7.21-2.55,9.99-1.85,1.24-.8,3.86,1.03,5.05.77.5,2.3,0,3.43-.29,2.64-.67-2.17-4.13,1.61-4.47-.92-3.45-.17-7.52-3.73-9.98ZM526.93,1289.77c.9.11,1.8.21,2.71.32-.94-.13-1.89-.27-2.83-.4-3.24-3.36,2.49-7.13-.11-11.42-3.21,4.59-7.98,8.12-5.75,13.1,1.58,3.52,2.73-5.21,5.98-1.6ZM987.78,784.04c-3.88-2.01-4.56,1.42-6.41,3.43-1.75,1.91-5.45,2.43-3.7,6.28,1,2.2,3.38,2.92,5.15,2.38,3.38-1.04,2.17-4.45,2.69-7,.38-1.83,1.31-3.55,1.97-5.33,2.39-.68,4.43-1.74,4.33-4.65,0-.26-1.46-.87-1.97-.66-2.57,1.06-3.41,2.94-2.06,5.54ZM484.6,582.99c7.63-5.39,8.69,3.67,12.83,5.83l.27-.43-.55.22c-3.17-.99-2.31-3.92-2.66-6.05-.6-3.66-3.3-5.09-5.99-6.69-1.22,2.47-2.44,4.94-3.67,7.41-7.37-3.89-8.12,2.04-9.21,7.45,2.99-2.58,5.98-5.16,8.97-7.74ZM889.97,1204.07l4.81.34c-.07-.64.02-1.77-.24-1.86-1.98-.65-4.06-1.18-4.62,1.84,2.3-6.13,1.47-13.3,6.07-18.68-10.66,3.26-7.77,11.05-6.02,18.35ZM979.95,712.85c6.36-8.42,4.98,0,6.73,3.22-2.09-4.87-1.23-8.84,5.83-13.62-9.16,2.23-14.12,3.45-12.26,10.72-2.05-1.09-2.95-.22-2.87,1.84.03.68.6,1.34.92,2,.55-1.39,1.1-2.78,1.65-4.17ZM893.43,1040.69l.23-.43-.52.23c-3.6-4.26-.99-11.07-6.32-15.29-.4,1.99-.68,3.51-1.04,5.01-.09.39-.36.85-.68,1.03-.31.17-.8.03-1.21.02.69.43,2.02.99,1.97,1.28-1.23,6.32,5.58,5.03,7.58,8.15ZM1058.88,994.83c4.75-2.65,5.81-6.17,2.07-10.33-.18-.2-1.8-3.46-4.24-1.33-4.95,4.33,3.08,6.14,1.7,9.74-.21.56.5,1.47.76,2.2-6.84.03-5.13,4.38-5.7,8.91,5.31-2.3,4.24-6.25,5.41-9.19ZM695.45,824.31c.27,1.12.55,2.24.82,3.36.43-.28,1.25-.6,1.23-.82-.15-1.28.47-3.53-2.27-2.28,1.77-1.56-2.53-4.77,1.73-5.8,7.98-1.93,5.66-6.13,1.68-11.66-.69,6.54-7.45,10.63-3.2,17.19ZM1036.16,1054.72l-.28.57.48-.18c-2.26-5.49,13.39-7.22,3.38-14.56-.75,3.27.96,6.81-4.31,8.34-3.35.97-4.26,4.45.73,5.83ZM1014.07,1048.56c-9.8-5.03-5.5,8.23-11.23,8.9-.52.06-3.59,4.01-.16,6.18.96.61,2.2,1.33,3.21,1.2,2.27-.3,1.92-2.36,1.86-3.94-.2-5.25,1.41-9.57,5.99-12.47.26-1,.51-2.01.77-3.01-.6.01-1.54-.22-1.76.07-1.19,1.63-.35,2.57,1.32,3.08ZM451.6,842.24c.59.6,1.18,1.2,1.77,1.8.14-.34.29-.68.43-1.02-.82-.16-1.64-.31-2.46-.47-1.84-7.06-7.3-10.06-13.51-12.19,4.73,3.78,5.82,11.86,13.77,11.87ZM730.18,807.38c1.01-1.84.14-2.82-1.62-3.14-.57-.1-1.26.4-1.89.63,1.25.75,2.51,1.51,3.76,2.26q3.35,6.73,15.36,3.27c-5.31-1.01-10.48-2-15.61-3.02ZM789.47,1179.64c2.9-6.45,6.41,7.87,9.84-.4,1.58-3.8,1.08-8.75,4.81-12.07-3.98,5.34-12.29,5.2-14.38,12.72-3.71.07-5.59,2.15-6.46,5.6-.4,1.58-1.22,3.07-1.97,4.55-.12.24-.84.18-1.28.26,3.3,3.81,4.35-1.29,6.59-1.79,2.29-.51,3.7,6.68,6.07.67,1.15-2.92-2.37-3.41-3.56-5.15-1-1.46-1.29-3.05.34-4.39ZM943.59,749.1l.14-.59-.42.27c-.53,4.34-3.39,7.41-6.4,9.94-2.41,2.02-1.65,3.46-.41,5.16.64.88,1.86,1.94,2.78,1.91,3.42-.13,6.56-12.62,4.32-16.69ZM503.28,582.03c.31-.28.59-.62.95-.81.26-.14.68-.18.94-.07,2.83,1.25-2.16,4.57,1.91,5.84,3.73-6.24,7.79-12.27-.42-20.24-.58,5.99-5.69,9.57-3.38,15.42l-1.55-1.75c-.28.43-.56.87-.84,1.3.8.1,1.59.21,2.39.31ZM496.55,1010.82c.58,0,1.58.16,1.66-.04.45-1.17.15-1.27-.71-.28-.19.22-.67.2-1.01.29,6.26-12.05-1.3-12.89-12.34-13.49,6.69,5.87,11.05,10.96,8.48,18.53,4.36.09-2.09-6.58,3.92-5.01ZM302.35,1179.95c4.7-2.72,6.85-.82,7.38,4.06.17,1.51.1,3.51,2.58,1.97,1.57-.97,3.27-1.88,4.46-3.22.41-.47-.7-3.16-.89-3.14-11.88,1.63-6.3-9.61-10.88-14.45-.84,5.32-1.6,10.12-2.4,14.9-9.98,2.88-13.08,11.25-15.85,19.87,5.2-6.67,10.41-13.33,15.61-20ZM367.68,1121.08c-5.85.45-6.17,8.46-12.08,8.83,1.08,3.61-5.29,6.68-2.56,8.64,4.91,3.53,3.38-3.25,5.33-4.73,2.18-1.65,5.36-1.99,7.53-3.64,3.19-2.43,5.66-5.57,1.47-9.39,11.25,2.53,5.71-10.02,11.36-12.71,1.89-.9,5.18-2.91,1.55-5.18-1.58-.99-2.56,5.25-6.24,2.5-.61,5.84-7.21,9.25-6.37,15.69ZM696.24,1139.83c-8.94,2.12-15.9,6.29-17.04,16.47,11.66.58,12.79-9.49,16.7-16.74.63-2.15,4.4-1.97,3.7-4.98-.07-.31-1.38-.34-2.11-.5-.36,1.93-2.95,3.38-1.24,5.75ZM721.59,739.42c-.79-.1-1.57-.2-2.36-.31.24.47.47.94.71,1.41.58-.46,1.16-.92,1.75-1.38-1.49,3.16,2.11,4.17,2.73,6.44,1.86-1.44,5.37-2.98,5.29-4.31-.28-4.6,3.04-7.86,3.94-12.02.78-3.64,5.63-6.31.81-10.49.76,4.95-7.53,4.78-5.94,11.2.53,2.14,1.45,10.79-6.93,9.46ZM616.7,590.76c10.28-7.39,16.09-13.38,18.57-17.92,1.09-2,1.99-3.74.67-5.66-.35-.52-2.36-.62-2.95-.13-1.66,1.39-3.9,2.09-1.93,5.73,2.7,5.01-2.39,10.97-5.44,9.65-11.93-5.13-6.22,5.53-8.72,8.56-.63.01-1.27.02-1.9.03.22.52.43,1.03.65,1.55.35-.61.71-1.22,1.06-1.83ZM242.42,894.62c4.54-.35,17.63-14.07,16.35-17.33-.58-1.48-1.95-3.66-3.08-3.73-6.24-.41-2.06,9.37-8.55,9.11.53,4.76.14,9.2-4.31,12.19-2.09,1.76-2.66,3.88-1.27,6.28.27.47,1.23.55,1.86.81.4-2.54,1.46-5.17-.99-7.33ZM1014.89,1179.44c7.03-2.41,13.42-15.49,11.55-22.71-3.93,7.22-12.38,12.81-11.25,22.93-2.39.56-2.73,2.12-1.95,4.14.1.27.89.58.96.51,1.32-1.45,2.13-3.01.69-4.87ZM256.68,1124.19c2.64-3.46,5.57-6.73,7.87-10.4,6.55-10.46,5.68-16.07-6.06-19.85,8.79,5.84,9.75,9.33,3.3,14.93-3.39,2.95-7.74,9.01-4.86,15.54-8.24-6.5-8.35,8.9-15.36,5.71.51,1.03,1.11,2.03,1.51,3.11.97,2.63,2.09.93,3.79.89,7.06-.18,5.25-8.06,9.81-9.93ZM968.11,787.66c4.27-1.06,5.25-3.96.95-5.08-3.74-.98-7.57-2.04-12.41-3.8,2.15,11.44-4.95,17.59-12.76,25.02,11.42.36,12.58-12.39,21.15-13.46,1.02-.89,2.05-1.78,3.07-2.67ZM1002.3,583.24c1.65,2.83,3.05,5.92,6.86,6.46.64-5.54,11.3-3.37,8.73-11.41-5.53.99-9.86,5.69-15.88,5.13.57-2.68-1.09-5.7,1.98-8.02,5.47-4.12,3.42-8.09-.48-12.54-2.24,5.33-6.55,9.35-.9,16.52-11.25-6.9-16.55-.54-23.1,3.76,6.44,5.28,11.19,7.22,15.42-1.4,2.87-5.86,5.02.11,7.37,1.49ZM50.62,703.61c0,4.72-.03,7.67,0,10.62,1.35,117.59,2.32,235.19,8.16,352.67,2.06,41.37,4.57,82.75,8.1,124.01,4.97,58.08,11.4,116.04,16.52,174.11,1.41,16.03,7.65,27.43,21.35,36.23,52.97,34.04,109.11,62.28,165.19,90.52,114.92,57.88,232.91,109.08,351.22,159.56,13.63,5.82,26.12,3.29,39.04-2.27,113.1-48.69,225.95-97.89,335.95-153.39,57.69-29.11,114.26-60.14,168.57-95.19,11.3-7.29,17.45-17.39,18.55-31.28,2.07-26.1,4.78-52.17,7.94-78.16,10.18-83.58,15.62-167.52,19.28-251.58,4.55-104.41,4.89-208.92,5.89-313.4.07-7.74,0-15.48,0-24.66-3.92,3.1-5.28,6.82-8.73,5.38-18.42-7.68-18.55,4.66-18.78,16.97-.04,2.09.05,4.19.01,6.28-.53,29.42-1.23,58.84-1.57,88.26-.34,29.77-1.39,59.59-.16,89.31,1.19,28.43-5.98,56.18-2.86,85.04,2.82,26.03-2.97,52.88-2.35,79.3.61,26.21-5.23,51.61-5.78,77.85-1.38,65.37-7.97,130.7-16.38,195.66-1.81,14.01-.1,30.19-16.16,39.42-53.01,30.45-105.87,61.18-160.68,88.3-60.61,29.99-121.75,58.91-183.59,86.28-50.3,22.26-100.9,43.85-151.33,65.8-7.65,3.33-14.68,3.8-22.89.41-83.26-34.32-164.93-72.24-246.74-109.78-43.13-19.79-85.5-41.23-128.03-62.3-40.63-20.13-79.61-43.35-119.55-64.75-16.65-8.92-21.42-23.21-23.56-38.48-4.02-28.66-6.52-57.62-7.91-86.55-1.87-38.98-5.8-77.81-7.97-116.78-2.53-45.59-5.97-91.17-7.37-136.82-1.7-55.74-2.14-111.52-3.14-167.28-.77-43.36-1.68-86.72-2.23-130.08-.1-7.71-1.91-10.82-10.02-7.61-5.48,2.17-11.35,2.87-18.01-1.61ZM635.61,646.01v.1c64.99,0,129.99.05,194.98-.01,72.78-.07,145.55-.25,218.33-.34,28.13-.03,56.27.29,84.4-.19,3.52-.06,9.89,1.94,11.09-3.01,1.86-7.66,2.53-16.16-.3-23.6-2.11-5.53-8.92-2.72-13.58-3.53-5.77-1-11.71-1.33-17.59-1.37-46.06-.31-92.13-.66-138.19-.66-232.94.02-465.88.01-698.82.33-47.74.07-95.53-1.73-143.22,2.22-3.67.3-9.21-.89-9.94,3.41-1.24,7.36-1.81,15.37-.15,22.52,1.14,4.93,8.18,1.78,12.42,3.07,1.87.57,4.03.22,6.06.22,84.43.28,168.86.65,253.29.8,80.41.14,160.82.03,241.23.03ZM588.53,264.45c0-1.79-.53-3.11-2.37-3.95-13.38-6.06-26.81-12.02-40.03-18.42-5.39-2.61-5.79,1.98-6.96,4.42-11.99,24.97-23.73,50.06-35.57,75.09-2.89,6.11-1.56,9.95,5.02,12.75,9.66,4.11,19.23,8.61,28.31,13.85,7.5,4.33,11.12,2.82,14.67-4.97,11-24.09,22.7-47.86,34.09-71.78,1.08-2.27,1.87-4.68,2.83-7.01ZM592.44,144.56c-5.01-1.21-5.59,1.43-6.68,3.74-12.03,25.46-24.12,50.89-36.17,76.34-1.49,3.15-2.83,5.91,1.94,8.05,12.63,5.69,25.23,11.52,37.48,17.97,4.64,2.44,6.42,1.59,8.47-2.71,11.75-24.73,23.71-49.37,35.52-74.07,1.44-3,3.54-7.18-.13-9.14-13.73-7.32-27.83-13.97-40.42-20.19ZM463.94,285.12c-1.51,10.96,3.98,20.02,9.41,28.16,3.67,5.5,11.09,10.34,17.88,10.23,5.61-.09,5.51-8.32,7.72-13,7.38-15.63,14.2-31.54,21.71-47.1,13.27-27.49,13.42-27.42-13.19-40.39-1.89-.92-3.97-1.62-5.62-2.86-6.64-4.98-10.55-2.71-13.41,4.33-2.37,5.85-5.53,11.37-7.97,17.19-6,14.31-14.69,27.61-16.53,43.44ZM673.77,207.77c-1.61-15.48-7.73-26.67-20.83-33.68-4.38-2.35-7.73-3.08-10.25,2.16-12.02,25-24.12,49.95-35.97,75.03-.9,1.91-2.54,4.39-.54,6.99,1.71,2.22,32.55,17.32,35,16.64,4.55-1.27,6.53-5.31,8.32-9,7.32-15.15,14.51-30.38,21.32-45.76,1.83-4.12,2.16-8.9,2.95-12.38ZM577.45,362.45c14.23-.06,25.52-6.1,32.55-18.3,7.15-12.4,13.34-25.38,19.53-38.31,8.59-17.92,8.42-18-9.41-27.85-4.06-2.24-8.31-4.21-12.12-6.82-7.23-4.93-10.89-2.44-14.29,4.94-9.89,21.41-20.5,42.49-30.61,63.8-8.15,17.17-4.67,22.47,14.35,22.54ZM552.07,133.8c-10.71.76-22.27,7.33-29.44,20.71-5.16,9.64-9.97,19.49-14.76,29.32q-10.68,21.93,10.45,32.88c1.87.97,3.68,2.06,5.54,3.04q14.42,7.6,21.64-7.77c8.58-18.3,17.17-36.6,25.7-54.92,8.48-18.21,5.1-23.48-19.14-23.27ZM75.98,628.19c2.29-10.57-1.66-15.17-15.49-15.12-14.13.06-12.15,8.65-11.77,16.3.35,7.1-4.03,17.88,10.8,17.26,16.47-.69,16.5-.05,16.47-18.44ZM1191.56,628.66c.35,17.59.35,17.54,19.79,16.81,11.3-.43,6.34-9.14,6.41-14,.25-18.04-.19-17.33-16.11-18.1-14.63-.7-8.21,9.96-10.09,15.29ZM1218.15,534.85c-.08-18.51-.11-17.85-16.62-18.51-13.84-.55-9.17,9.49-9.36,15.54-.54,17.67-.04,16.98,16.4,17.94,14.85.87,7.58-9.94,9.58-14.97ZM650.95,1579.58c4.73,3.14,8.72-1.33,13.06-1.14,6.72.29,6.2-3.72,6.12-8.05-.13-7.01-4.93-3.9-8.1-3.61-16.74,1.52-33.45,2.24-50.18-.19-4.21-.61-10.04-3.7-10.66,3.8-.53,6.39,4.38,7.9,10.06,8.41,13.17,1.17,26.28,3.32,39.7.8ZM75.71,532.42c-1.22-6.61,4.28-16.56-10.13-15.92-16.24.72-16.31-.15-15.98,16.5.07,3.79.46,7.58.55,11.37.08,3.8,1.21,5,5.63,5.88,14.94,2.98,20.31-1.34,19.94-17.83ZM140.68,1032.15c.18,0,.36-.01.54-.02-.49-6.26-.83-12.54-1.51-18.78-.42-3.86,1.14-9.91-4.46-10.15-6.05-.26-7.91,5.56-8.21,10.73-.72,12.18.63,24.28,2.28,36.34.46,3.37,1.23,6.79,5.52,6.32,3.65-.4,5.92-2.77,5.87-6.85-.07-5.86-.02-11.73-.02-17.59ZM1134.77,1173.97c-.16-.01-.32-.03-.48-.04,0-4.23-.09-8.45.03-12.68.13-4.66-3.93-5.06-6.69-6.27-2.39-1.05-3.92,1.44-4.3,3.45-2.73,14.47-5.55,28.94-1.96,43.73.84,3.45,2.9,5.18,6.05,5.45,4.25.36,4.26-3.02,4.56-5.96.93-9.23,1.86-18.46,2.79-27.68ZM129.6,1103.09c.12,0,.23,0,.35,0,0,6.56-1.07,13.39.52,19.53.64,2.48-1.5,9.46,5.65,8.88,6.49-.53,8.17-4.41,8.44-10.3.49-11.05-1.16-21.89-2.52-32.76-.35-2.75,2-7.47-3.3-7.68-4.56-.18-8.46,2.23-9.01,7.15-.55,5-.12,10.12-.12,15.18ZM1139.91,948.87c0-5.86,0-11.72,0-17.59,0-3.17-.36-5.69-4.71-5.45-3.75.21-6.34.79-6.66,5.33-.95,13.4-1.89,26.76.46,40.13.59,3.35,2.01,5.16,5.64,5.37,4.03.23,4.55-2.23,5.45-5.28,2.21-7.51.43-15.01-.17-22.51ZM123.85,789.94c-.85,3.68,1.89,9.4-.46,15.36-.64,1.62-1.15,8.85,5.02,9.08,4.71.18,8.33-2.03,8.35-7.27.05-13.01,0-26.03-.45-39.03-.11-3.08-1.04-7.36-5.71-6.6-3.85.62-6.93,2.75-6.78,7.6.19,6.28.05,12.58.05,20.85ZM1129.76,787.49c-.1,0-.21,0-.31,0,0,5.46.05,10.92-.02,16.38-.05,4.28-.44,9,5.59,9.16,5.5.15,6.98-4.12,7.03-8.58.13-12.18-.01-24.36-.17-36.54-.04-3.1,1.05-7.04-4.46-7.01-4.54.02-7.41,1.87-7.59,6.43-.27,6.71-.07,13.44-.07,20.16ZM1142.28,870.17s-.06,0-.08,0c0-6.3.12-12.6-.05-18.89-.08-3.13.69-7.37-4.26-7.45-3.48-.06-6.42,1.42-7.04,5.64-2.01,13.78-1.66,27.62-.54,41.41.23,2.84,1.56,7.15,6.19,6.46,4.51-.67,5.84-4.07,5.79-8.27-.06-6.3-.02-12.6-.02-18.9ZM1013.45,1415.5c8.7-6.43,20.57-10.77,31.59-16.74,2.61-1.42,7.66-3.31,4.78-8.63-2.61-4.82-6.14-4.81-10.61-2.55-10.07,5.09-20.24,9.98-30.41,14.85-4.64,2.22-3.59,6.2-3.14,9.86.41,3.3,3.03,3.61,7.79,3.21ZM137.03,871.77c-.24,0-.48,0-.72,0,0-7.12.29-14.26-.13-21.35-.2-3.46-2.05-6.28-6.54-5.91-3.49.28-5.4,1.57-5.38,5.3.08,13.39-1.21,26.84,1.27,40.11.54,2.89.41,7.53,5.09,7.42,4.72-.11,6.04-4.21,6.3-7.98.41-5.84.11-11.73.11-17.6ZM139.1,952.15s.03,0,.05,0c0-5.47.67-11.05-.22-16.37-.67-4.01.2-10.84-5.9-10.74-5.95.1-8.01,6.42-7.98,11.33.06,11.29,1.15,22.59,2.1,33.86.3,3.52,2.27,7,6.12,6.81,3.71-.19,5.64-3.57,5.77-7.23.21-5.88.06-11.77.06-17.66ZM923.66,1450.66c-1.8-1.58-.15-8.75-7.38-5.18-10.85,5.37-21.7,10.74-32.32,16.54-3.34,1.82-5.89,5.28-3.96,9.54,2.32,5.13,6.79,2.59,9.71,1.31,9.57-4.18,18.84-9.06,28.21-13.71,3.03-1.5,6.21-2.96,5.75-8.5ZM1126.19,1032.89l.7.03c0,5.49-.06,10.99.02,16.48.05,3.38-.23,7.01,5.17,6.43,3.82-.41,6.66-1.58,6.75-5.85.26-13.09.43-26.19.56-39.28.04-4.21-2.56-5.76-6.42-6.25-4.76-.62-4.57,3.57-4.88,5.77-1.07,7.5-1.33,15.11-1.9,22.67ZM1136.58,1106.21c.17,0,.34,0,.51,0,0-6.71.08-13.42-.03-20.13-.06-3.54-2.19-4.98-5.64-5.4-3.87-.48-5.22,1.4-5.77,4.75-2.27,13.77-1.66,27.61-.59,41.4.26,3.32,3.5,6.05,7.1,6.01,3.76-.04,4.08-4.08,4.26-6.54.5-6.67.17-13.39.17-20.1ZM944.05,1436.94c.69,3.76,3.09,8.33,7.02,6.31,10.82-5.58,23.48-6.44,33.45-14.48,4.45-3.59,2.63-6.68,1.77-9.62-.85-2.9-3.47-3.33-7.11-1.93-10.14,3.9-20.27,7.72-29.66,13.24-2.41,1.42-5.61,2.36-5.47,6.48ZM124.16,708.88c.06,0,.13,0,.19,0,0,6.7-.18,13.4.08,20.09.12,2.97,1.5,5.75,4.91,6.33,4.55.78,6.28-3.13,6.64-5.99,1.58-12.49,1.6-25.08-.15-37.58-.49-3.47-2.21-6.42-6.51-6.24-4.64.19-5.1,3.55-5.14,7.06-.07,5.45-.02,10.89-.02,16.34ZM133.31,1178.95c.11,0,.22,0,.32,0,.5,7.08.37,14.29,1.83,21.17.55,2.61-1.28,8.53,4.59,8.11,4.67-.34,7.5-3.54,7.39-8.49-.27-12.52.23-25.06-1.9-37.52-.71-4.14-1.85-5.79-6.26-5.34-4.63.47-6.69,1.94-6.1,7.04.58,4.95.13,10.01.13,15.03ZM796.15,1513.3c-1.31-5.27-3.86-8.31-9.81-5.89-11.24,4.57-22.19,9.73-32.47,16.21-2.58,1.63-6.16,2.71-3.17,7.53,2.48,4.01,4.86,3.76,8.26,2.19,11.39-5.24,22.76-10.51,34.21-15.61,2.17-.97,3.62-1.93,2.98-4.44ZM219.79,1392.9c-1.4,1.44.08,1.74,1.03,2.38,10.91,7.27,22.02,14.24,34.87,17.48,3.24.81,6.81-.71,7.91-4.65.91-3.29-.51-5.68-3.54-7.21-9.69-4.87-19.25-10.05-29.1-14.58-6.11-2.81-9.31,1.05-11.17,6.58ZM694.35,1562.22c11.02-4.81,24.05-3.9,33.08-13.43,2.65-2.8,4.07-5.53,3.03-8.88-1.23-3.98-5.01-2.66-7.54-2-11.39,3-22.06,7.77-31.82,14.45-2.24,1.54-3.95,3.53-2.59,6.31,1.13,2.31,3.04,4.06,5.84,3.54ZM853.61,1478.32c-12.9,2.44-24.52,8.54-35.53,15.94-2.72,1.83-4.06,4.36-2.15,7.5,2.65,4.36,4.6,1.26,6.47-.84,2.37-2.66,5.29-1.43,8.15-1.57,10.14-.5,19.02-4.37,27.08-10.56,2.94-2.26,3.26-4.79,2.24-7.65-.92-2.56-2.99-3.93-6.25-2.82ZM1143.15,712.83c-.39-8.77-.49-14.26-.94-19.72-.22-2.71.7-7.11-3.25-7.05-3.31.05-8.77.56-8.92,5.3-.39,12.6-.19,25.25.52,37.84.15,2.76,2.42,6.81,6.86,5.87,3.21-.68,4.58-3.38,4.78-6.59.39-6.3.77-12.6.95-15.64ZM447.69,1500.4c3.74.95,6.66,1.53,7.79-1.37.97-2.5-1.14-4.79-3.03-6.1-10.41-7.21-22.11-11.49-34.38-14.25-3.57-.8-7.07.26-8.45,3.77-1.79,4.56,3.15,5.41,5.41,7.08,10,7.35,21.65,10.3,32.65,10.88ZM1129.47,1251.9c0-4.86.02-8.65,0-12.44-.02-3.03-.12-5.73-4.28-6.35-4.24-.63-6.7,1.07-7.31,4.86-1.92,12.03-2.82,24.14-1.91,36.35.29,3.87,3.3,4.59,6.02,5.32,4.15,1.12,4.53-2.17,5.08-5,1.54-7.86,2.87-15.74,2.4-22.73ZM139.17,1253.64c-.15.02-.31.04-.46.06.84,7.04,1.73,14.07,2.51,21.12.42,3.78,2.59,4.49,6.04,4.39,3.94-.12,5.06-2.17,5.03-5.53-.07-7.53.91-15.3-.6-22.53-1.33-6.35,2.66-18.37-6.61-18.01-12.38.47-4.66,12.38-5.96,19.26-.08.4.03.83.06,1.25ZM291.36,1416.64c-4.82-.3-6.84,1.81-8.41,4.37-1.97,3.21,1.5,3.54,2.64,5.3,7.1,11.02,21.09,8.23,30.07,15.47,1.64,1.32,6.55.22,8.6-2.88,1.43-2.16,2.23-5.43-.37-6.75-11.1-5.62-22.43-10.75-32.53-15.52ZM345.17,1451.83c-.88,4.36,2.62,4.3,4.66,5.31,9.65,4.8,19.28,9.64,29.14,13.96,2.68,1.18,6.85,5.56,8.93-1.03,1.25-3.93.87-6.79-3.85-8.95-9.81-4.48-19.21-9.87-28.75-14.94-6.8-3.61-8.56,1.12-10.13,5.63ZM1121.81,1343.62c.78-11.03,1.59-21.79,2.28-32.56.39-6.08-2.09-9.35-8.7-9.33-7.67.03-5.8,5.52-5.96,9.74-.17,4.59-1.11,9.64.41,13.7,2.47,6.6-.21,16.93,11.97,18.46ZM1104.1,1360.15c-1.27-4.78-4.97-7.09-10.21-5.18-10.34,3.77-19.36,10.06-27.95,16.77-4.66,3.64-1.35,6.73,2.27,8.58,3.09,1.58,35.15-14.85,35.89-18.07.09-.4.01-.84.01-2.09ZM481.37,1505.8c-2.55-1.19-3.82-.05-4.38,2.42-.65,2.87-2.03,6.73.93,8.14,11.56,5.51,23.42,10.38,35.21,15.4,2.73,1.16,5.03-.02,6.35-2.44,1.44-2.63.35-5.04-2.04-6.41-11.56-6.65-23.49-12.56-36.08-17.1ZM171.79,1354.35c-2.99.47-5.98-.48-6.72,3.02-.44,2.1-.27,3.92,1.86,5.42,9.91,7.01,20.08,13.45,32.04,16.48,2.8.71,5,.24,6.21-2.54,1.1-2.52.99-4.94-1.48-6.66-10.01-6.96-20.67-12.57-31.91-15.73ZM583.23,1557.94c-.38-.87-.71-1.63-1.05-2.4-2.7-6.04-32.27-19.9-38.51-17.78-3.93,1.34-6.8,3.96-2.01,7.54,10.44,7.78,22.18,12.9,34.89,15.69,2.79.61,5.95,1.11,6.68-3.05ZM144.12,1320.13h.6c0,5.06-.15,10.12.06,15.17.12,2.85.47,6.5,3.93,6.83,3.08.3,5.01-2.39,6.19-5.37,2.88-7.3,2.64-14.93,2.09-22.46-.36-4.85,2.17-12.35-6.61-12.32-10.14.03-5.47,8.1-6.22,13.1-.25,1.65-.04,3.36-.04,5.05ZM856.83,894.5c5.11.35,6.55-13.28,13.97-3.73,1.17,1.51,1.68,6.58,3.6,2.74,1.73-3.46,9.15-3.37,6.03-9.39-1.68-3.24-5.45-6.28-7.77-3.93-5.03,5.08-14.68,5.11-15.83,14.3ZM602,846.23c6.7-1.19,3.86-8.06,6.82-11.47-4.95-4.08.74-6.74,1.32-10.09.23-1.31,5.26.96,1.99-2.75-1.43,1.4-4.65-3-5.12,1.59-.67,6.48-5.87,5.54-10.14,6.16-3.72.54-6.47,1.98-5.89,6.49,4.61-.15,8.57-6.74,12.3-3.52,4.22,3.63-4.03,8.59-1.28,13.6ZM278.84,982.81c-9.51,2.51-13.25,11.38-19.39,17.46-.43.43.74,3.04,1.7,4.21,2.23,2.73,3.09-.65,4.58-1.29,8.82-3.8,5.86-15.28,13.11-20.37ZM398.78,760.14c-6-5.87-1.54-10.75,1.69-15.49,2.81-4.14,6.04-8.01,9.27-11.85,3.09-3.68-.18-5.25-2.32-6.81-1.89-1.38-3.26.19-2.95,2.01,1.22,7.25-5.05,10.78-8.08,15.64-4.76,7.65-4.75,12.69,2.39,16.49ZM323.28,1226.66c-15.89,2.92-18.08,6.67-14.92,23.23,4.41-7.67,5.55-17.24,14.92-23.23ZM725.8,1265.1c.28-4.97-6.89-5.12-8.21-9.75.51,4.8-4.68,5.88-6.14,9.4,4.98.44.08,9.15,4.81,7.21,2.92-1.2,10.71,2.39,9.54-6.86ZM373.17,581.29c-1.02-.24.12-2.75-2.94-1.18-2.64,1.35-4.78-4.48-7.94-2.62-4.21,2.48-5.65,6.92-5.93,11.71-.01.23-.68.42-1.05.62,3.96-3.41,8.07-5.72,13.34-2.34.12.08,2.73-3.72,4.52-6.19ZM301.11,885.3c8.02-2.14,4.41-10.4,8.23-14.28-2.55-1.06-1.64-5.57-5.78-5.35-5.52.3-2.77,3.26-2.55,5.91.37,4.33.1,8.71.1,13.71ZM926.15,1156.27c-7.06,6.18-21.05,8-8.48,19.96-.21-7.03,8.42-10.99,8.48-19.96ZM503.22,898.92c4.6-5.57,10.06-9.33,1.32-13.12-4.36-1.89-1.23-5.1-2.26-7.37-.87-1.93,4.74-4.89-1.04-5.75-1.08-.16-2.09-.83-3.12-1.27-.3,2.38-1.58,5.22-.72,7.06,2.77,5.92,4.54,12.04,5.82,20.44ZM65.88,573.71c-3.24,3.88-6.08,5.8-6.55,8.19-.75,3.81,3.71,5.09,6.03,5.48,4.51.76,6.61-1.99,6.94-6.99.47-7.23-9.92,5.29-6.41-6.68ZM907.53,1389.71c6.54-5.18,2.57-10.34-1.47-14.82-.36-.4-6.06,4.02-11.93,8,10.51-3.23,11.35,2.57,13.4,6.82ZM1063.96,1025.33c-3.27-1.51-7.83.1-8.34-4.46-3.07,4.43,1.72,12.08-5.98,14.62,1.34,1.33,2.68,2.66,4.01,4,3.27-4.49,6.53-8.97,10.31-14.16ZM998.89,1233.07c2.51-7.6,11.94-11.07,13.08-22.19-5.28,9.11-15.74,11.98-13.08,22.19ZM204.98,757.8c.95,1.43.3,2.59-.86,2.99-5.96,2.01-3.69,8.6-6.8,12.19-.14.16,1.86,2.69,2.1,2.57,5.63-2.81,3.68-10.28,8.36-13.99.72-.57-.67-3.79-1.08-5.79-1.1.27-2.81.2-3.21.88-1.43,2.49,1.53.11,1.49,1.15ZM628.76,1180.44c3.59-6.88,11.29-10.77,12.63-19.05.24-1.48,1.37-3.41-.94-4.06-.96-.27-3.11.38-3.26.98-1.92,7.68-6.22,14.38-8.44,22.14ZM333.05,722.25c2.18-4.02-4.57-6.09-1.49-11.13,2.71-4.42-4.49-1.61-5.69-4.22-1.3,1.58-6.17,2.85-2.71,4.99,4.38,2.7,2.43,10.97,9.89,10.36ZM257.31,1042.13c7.62-1.09,15.21-2.24,23.91-7.26-11.07-2.27-17.49,2.5-23.91,7.26ZM748.53,1229.34c6.82-1.73,10.01-4.13,16.85-12.7-4.39,5.39-14.73,1.79-16.85,12.7ZM714.48,792.66c8.84,3.73,8.88-4.88,11.96-9.06,2.39-3.25-1.83-2.4-2.74-3.66-2.96-4.12-2.25.66-2.69,1.37-2.31,3.69-4.37,7.54-6.53,11.35ZM320.26,838.02c8.31,1.43-5.89,16.05,4.6,11.66,16.56-6.92-8.06-6.04-4.6-11.66ZM468.99,579.93c-5.97,1.68-10.76,7.03-16.01,1.43-.84-.89-3.15.05-2.89,2.44.17,1.51.23,3.03.34,4.54,4.56-6.45,15.96,6.92,18.56-8.41ZM1026.99,731.7c-2.98,7.74-10.95,12.42-13.25,20.58,8.13-4.58,13.88-10.62,13.25-20.58ZM214.76,749.86c-.8-6.94,6.38-8.6,9.12-13.63-2.59-.73-3.65-2.76-4.31-5.11-3.79,4.37-3.12,12.25-10.73,13.6,1.19,1.64,2.35,3.31,3.6,4.9.17.22.77.1,2.33.24ZM743.11,1249.92c-.25.3-1.94,2.99-6.04-.44-1.43-1.19-8.74,2.12-7.73,6.83,1.2,5.58,3.2-1.98,5.7-.63,6.61,3.57,5.6-6.45,8.07-5.75ZM777.78,1370.78c-.21.74-.41,1.49-.62,2.23-.43,1.51-.79,3.05-1.33,4.53-1.52,4.18,1.71,2.78,2.91,2.1,4.23-2.39,1.76-4.38-.57-6.49-.35-.32,1.09-2.18.94-3.21-.5-3.44-1.35-6.83-2.06-10.23-.68.38-1.47.65-2.03,1.16-4.36,3.96,2.11,4.78,2.22,7.47.04.82.35,1.63.53,2.45ZM951.06,1190.48c-.43-5.93,4.3-7.09,5.73-10.38.5-1.14,4.23-2.82-.19-4.11-1.37-.4-2.4-1.97-3.58-3,1.72,6-13.16,8.77-1.96,17.5ZM957.4,873.5c8.09.54,9.04-5.8,11.85-10.29,1.13-1.8-.33-2.94-1.47-4.16-1.68-1.81-3.39-.64-3.61.66-.9,5.36-8.42,7.52-6.77,13.8ZM777.54,867.12c-.28-5.91,7.7-8.84,6.06-16.75-3.68,6.05-14.13,7.46-6.06,16.75ZM398.18,791.19c-7.11,7.31.17,12.24,1.05,17.78.24,1.49,3.33.43,3.92-.83,2.5-5.24-.51-9.44-3.12-13.65-.66-1.05-1.22-2.17-1.85-3.3ZM300.22,816.21c1.76,4.61-5.3,8.71-1.36,13.35,2.82,3.32,7.26,2.12,13.22-1.68-19.13,4.07-1.04-11.22-11.86-11.67ZM767.73,1160.87c4.15,1.54,15.15-4.39,15.82-8.61.1-.65-.18-1.74-.66-2.05-1.68-1.1-2.81-.56-3.7,1.35-2.29,4.92-6.77,7.27-11.46,9.31ZM407.08,1168.31c5.41-8.79,1.33-18.27,3.83-29.95-9.54,11.17-2.86,20.84-3.83,29.95ZM433.99,1225.23c2.86-.98,3.38-3.53,6.41-4.03,3.51-.58,2.65-9.57-.48-8.64-6.28,1.86-4.84,7.65-5.92,12.67ZM446.84,719.4c5.08-.82,9.2-1.81,12.64-5.32,5.2-5.32-1.51-4.21-2.06-3.39-2.17,3.17-.26-9.91-3.35-.7-1.11,3.31-4.42,5.88-7.23,9.42ZM425.49,708.41c-1.57,3.06-3.93,6-4.47,9.24-.43,2.61-7.85,11.72,3.41,7.05,4.83-2,.34-10.65,1.06-16.29ZM645.63,733.71c12.3,9.36-1.58,6.91-.72,11.91.98,5.71,5.45,6.97,8.54,1.67,3.07-5.25,1.56-9.31-7.82-13.58ZM800.6,796.91c-1.09-7.19,4.77-11.59,7.74-17.13-7.06,3.76-13.56,7.73-7.74,17.13ZM1056.84,1260.23c4.4-5.42,1.25-10.77-.35-17.17-5.47,6.49-6.12,11.9.35,17.17ZM1013.4,1093.05c1.13-4.63,9.73-2.74,7.67-9.66-.61-2.06-2.53-4.73-5.49-2.69-4.41,3.04-4.1,7.4-2.18,12.36ZM305.83,702.07c-.72,4.37-.68,6.07-1.31,7.47-1.32,2.95-3.59-2.84-4.28.02-.85,3.5,2.5,7.69-1.6,10.84,1.1.09,2.29.5,3.27.2,5.27-1.58,4.88-5.91,4.66-10.08-.1-1.91-.33-3.82-.74-8.46ZM952.62,1078.59c3.58-3.8,6.91-6.85,9.63-10.37,2.1-2.71-.36-4.34-2.45-5.73-1-.66-2.7-1.09-2.32.51,1.45,6.22-9.89,7.25-4.85,15.59ZM643.07,869.49c2.93-.85,2.59-4.38,4.3-5.54,4.18-2.83,7.76-6.67,7.08-9.49-.22-.9-1.4-1.8-2.35-2.24-1.86-.87-2.19,1.1-1.88,1.84,2.45,5.85-2.99,5.58-5.62,7.1-4.1,2.37-3.16,5.16-1.53,8.34ZM466.95,1152.21c14.67,2.58,14.97,2.27,9.8-10.87-1.57,5.86-3.65,10.34-9.8,10.87ZM217.64,851.2c-7.62,2.28-8.26,9.37-11.3,14.54-.18.31,1.59,2.48,2.07,2.35,6.67-1.79,5.02-9.22,8.66-13.19.63-.69.37-2.2.57-3.7ZM959.45,1041.59c-1.76-2.95-3.05-3.97-5.55-3.49-5.34,1.03.28,8.8-5.85,9.11,1.29.89,3.16,2.83,3.76,2.49,3.58-2,1.09-8.78,7.63-8.12ZM207.47,585.13c1.84-4.32,5.09-7.19,6.72-10.45,3.53-7.04-2.39-6.16-5.15-3.51-3.65,3.5-9.71,7.98-1.57,13.96ZM288.36,580.03c.18-2.11-1.36-2.66-2.92-3.18-1.4,5.52-9.45,3.83-10.39,9.53-.19,1.12,2.14,3.83,2.49,3.7,4.88-1.88,7.79-6.04,10.82-10.04ZM383.65,1120.27c.58,4.93-1.65,9.51,2.32,13.04.69.61.55,3.48,1.29,2.02,1.37-2.71,6.26-1.87,5.54-6.16-.21-1.25-.53-3.16-1.55-2.47-10.41,6.99-3.99-4.55-7.59-6.43ZM757.25,1135.32c-2.67,4.91,6.34,6.24.91,10.01-1.94,1.35-5.69,1.99-2.27,4.83,2.98,2.47,3.37-1.53,4.81-3.11,5.93-6.48-1.74-7.19-3.46-11.72ZM968.17,1151.3c-2.97,3.1-6.3,2.17-8.73,6.3-2.92,4.96,4.11,4.1,3.23,7.28,1.06-1.15,2.11-2.3,3.17-3.44-6.32-4.99,3.71-4.45,2.33-10.14ZM1078.12,564.86c-3.57,7.9-12.8,10.59-7.76,20.44.87-7.25,8.5-10.64,7.76-20.44ZM816.15,754.95c-.58,4.6-5.03,3.9-6.8,6.1-2.25,2.8.06,5.18,2.73,6.75,1.99-3.84,7.79-6.24,4.07-12.86ZM422.64,985.79c-6.5-5.33-8.8.77-11,4.61-1.27,2.21-4.47,6.61.2,8.37,6.33,2.39-.59-5.98,3.99-5.74-.11-4.67,3.15-6.25,6.81-7.25ZM424.34,749.3c-3.58.76-1.59-9.32-7.58-5.04-1.68,1.2-4.35,3.82-2.37,6.18,3.74,4.46,6.97-1.9,9.96-1.13ZM672.63,590.62c4.03-5.64,7.62-3.91,11.29-.39,1.2-3.92,1.52-6.46-4.27-7.01-5.9-.56-5.18,3.97-7.02,7.4ZM621.33,561.15c-5.75,2.76-9.64,4.2-9.8,9.4-.02.82.48,2.32,2.36,1.78,4.9-1.41,4.67-5.85,7.44-11.17ZM792.66,1043.92c-2.64,6.96-3.9,10.28-5.15,13.6,1.97.54,5.54,1.79,5.67,1.5,1.63-3.61,1.26-7.42-.52-15.1ZM264.11,1184.23c-1.01-3.65,5.85-10.29-4.99-11.51,5.17,3.29,2.69,7.93,4.99,11.51ZM549.24,585.22c1.15-1.08,2.88-1.93,3.29-3.21,1.41-4.4-3.06-4.1-5.12-5.37-2.56-1.58-1.9,1.53-2.23,2.47-1.12,3.28,2.34,3.87,4.06,6.11ZM597.57,811.53c3.01-4.48,5.07-7.54,7.93-11.78-6.93,1.71-8.72,4.93-7.93,11.78ZM585.67,861.39c-2.53,1.94-4.68,4.36-7.89,5.47,3.76-.04,7.35-.31,7.89-5.47ZM772.12,1005.9c-2.33-1.04-4.56-2.03-6.79-3.01-.38,1.36-1.21,2.78-1.05,4.07.53,4.14,2.64,1.41,4.19.74,1.3-.56,2.55-1.26,3.65-1.8ZM314.34,845.51c1.53-.75,2.95-1.67,2.41-3.65-.23-.85-.08-2.94-1.96-1.57-.88.64-1.47,1.9-1.82,2.99-.31.99-.33,2.29,1.36,2.23ZM983.75,820.71c1.96-3.64,1.65-6.14-.5-8.65-.43,2.83-1.91,5.47.5,8.65ZM914.31,763.16c.9-.38,2.71.08,1.91-1.91-.26-.64-1.13-1.63-1.4-1.54-.99.34-2.37.89-2.66,1.7-.63,1.78,1.16,1.44,2.16,1.75ZM596.83,813.23c.26-2.43-1.84-2.72-3.25-2.87-1.02-.11-3.1,1.07-3.1,1.67.01,2.54,2.49,2.93,4.3,3.54,1.9.64,1.56-1.33,2.06-2.34ZM1081.87,566.3c.24-.43,1.15-1.43,1.27-2.52.09-.82-.84-1.74-1.32-2.62-.83.78-1.88,1.42-2.42,2.36-.64,1.12-.22,2.19,2.47,2.78ZM245.71,867.02c-.51-.63-1.19-1.46-1.87-2.29-.84.72-2.24,1.35-2.36,2.17-.12.83.84,2.32,1.68,2.66,1.57.65,1.99-.89,2.55-2.54ZM767.02,990.02c1.67-1.53,1.53-2.37.41-2.35-.96.02-2.07.58-2.83,1.23-.94.82-.94,2.18.48,2.26.91.05,1.89-1.11,1.94-1.14ZM421.38,760.76c-.46-1.16-.76-1.9-1.05-2.63-.48.89-1.16,1.74-1.36,2.68-.12.6.48,1.35.76,2.04.59-.75,1.18-1.5,1.65-2.09ZM875.26,1167.44c-.22-1.29-.59-2.48-2.26-2.32-.37.04-.7.38-1.05.58.64.93,1.29,1.85,1.93,2.78.46-.35.92-.69,1.37-1.04ZM524.97,1148.12c-.28-1.1-.47-1.86-.66-2.61-.3.92-.75,1.82-.86,2.77-.09.72.25,1.49.39,2.24.41-.88.83-1.75,1.13-2.4ZM657.71,1290.21c.06,1.5.96,2.05,2.25,1.68,1.13-.33,2.16-.98,3.24-1.49-1.06-.54-2.11-1.13-3.2-1.61-1.42-.62-2.06.12-2.29,1.42ZM1175.24,925.6c.63-.28,1.28-.56,1.92-.84-.27-.27-.54-.74-.82-.76-.68-.04-1.36.15-2.05.24.31.44.62.88.95,1.36ZM273.72,1182.32c-.26-.68-.51-1.37-.77-2.05-.46.41-1.27.81-1.3,1.24-.04.68.46,1.4.73,2.09.45-.42.9-.84,1.33-1.29ZM657.42,1296c.66-1,.38-1.64-.82-1.53-.86.08-2.76-.64-1.84,1.56.29.7.89,1.27,1.34,1.9.44-.64.89-1.28,1.32-1.94ZM763.92,997.39c-.48-.38-.96-.75-1.44-1.13-.28.65-.76,1.31-.76,1.95,0,.28,1,.56,1.54.84.22-.55.43-1.09.65-1.66ZM1050.81,1004.95l-1.36-1.24c-.28.67-.78,1.35-.76,2,.01.34.98.63,1.51.94.2-.56.4-1.13.61-1.71ZM568.06,1374.79c-.3-.63-.6-1.25-.9-1.88-.5.36-1.44.77-1.41,1.08.06.71.61,1.37.96,2.05.46-.41.91-.82,1.35-1.25ZM1019.77,1043.38l-.75-2.11c-.48.48-.96.95-1.44,1.43-.87.86-.74,1.62.47,1.75.54.06,1.15-.66,1.72-1.06ZM990.82,814.64c-.61,1.06-1.21,2.11-1.82,3.17.72.23,1.83.86,2.08.61.85-.84,1.4-1.98,2.07-3.01-.72-.24-1.43-.47-2.33-.77ZM1030.79,1056.84c-.32-.72-.62-1.4-.92-2.08-.52.33-1.46.63-1.48.99-.04.65.46,1.33.73,2,.54-.3,1.09-.59,1.67-.91ZM412.67,756.56l-.42.48.65.12-.23-.6ZM871.14,1266.66c-.15.27-.5.61-.43.81.4,1.19,1,1.23,1.55.11.09-.19-.13-.64-.34-.84-.15-.14-.52-.06-.79-.08ZM869.86,1271.87c-.27-.25-.55-.71-.82-.7-.27,0-.52.48-.77.75.41.25.81.49,1.22.74.12-.26.25-.53.37-.79ZM649.35,1297.86c-.28-.28-.54-.75-.83-.77-.29-.02-.62.42-.93.66.28.28.54.76.83.77.29.02.62-.42.93-.66ZM299.18,723.7c-.25-.27-.48-.73-.74-.74-.26-.01-.54.42-.81.66.38.27.75.54,1.13.81.14-.25.28-.49.42-.74ZM796.18,1063.77c-.28-.14-.64-.46-.83-.38-1.17.46-1.18,1.06-.02,1.55.2.08.64-.17.82-.38.13-.16.03-.51.04-.78ZM793.18,1069.8l.5-.84-.81-.09.31.93ZM1007.38,1089.78c-.23-.26-.43-.69-.68-.72-.25-.03-.56.34-.84.53.23.26.43.69.68.72s.56-.34.84-.53ZM1176.69,801.99c-.31.25-.6.48-.88.71.26.25.51.7.78.71.27.01.56-.4.85-.63-.25-.26-.5-.53-.75-.79ZM564.73,559.98c.26-.25.72-.49.74-.76.02-.27-.4-.57-.63-.85-.27.39-.55.77-.82,1.16.24.15.47.3.71.45ZM724.21,799.63c-.15.25-.48.59-.41.75.15.33.51.55.78.82.16-.51.31-1.03.47-1.54-.28,0-.56,0-.85-.03Z"/>
  <path class="cls-2" d="M50.62,703.61c6.66,4.49,12.53,3.78,18.01,1.61,8.11-3.2,9.92-.1,10.02,7.61.55,43.36,1.45,86.72,2.23,130.08.99,55.76,1.44,111.54,3.14,167.28,1.39,45.65,4.83,91.23,7.37,136.82,2.17,38.97,6.1,77.8,7.97,116.78,1.39,28.92,3.88,57.88,7.91,86.55,2.14,15.27,6.91,29.56,23.56,38.48,39.94,21.39,78.92,44.61,119.55,64.75,42.53,21.07,84.9,42.52,128.03,62.3,81.82,37.54,163.48,75.46,246.74,109.78,8.21,3.39,15.25,2.91,22.89-.41,50.44-21.95,101.03-43.55,151.33-65.8,61.85-27.36,122.98-56.28,183.59-86.28,54.81-27.12,107.67-57.85,160.68-88.3,16.06-9.23,14.35-25.41,16.16-39.42,8.41-64.96,15-130.28,16.38-195.66.55-26.23,6.4-51.64,5.78-77.85-.62-26.43,5.17-53.27,2.35-79.3-3.12-28.86,4.04-56.6,2.86-85.04-1.24-29.72-.19-59.54.16-89.31.34-29.42,1.04-58.84,1.57-88.26.04-2.09-.05-4.19-.01-6.28.23-12.31.36-24.65,18.78-16.97,3.46,1.44,4.82-2.27,8.73-5.38,0,9.19.06,16.93,0,24.66-1,104.49-1.34,208.99-5.89,313.4-3.67,84.06-9.11,168-19.28,251.58-3.17,25.99-5.87,52.06-7.94,78.16-1.1,13.89-7.25,23.99-18.55,31.28-54.31,35.05-110.88,66.09-168.57,95.19-110,55.49-222.85,104.7-335.95,153.39-12.92,5.56-25.4,8.09-39.04,2.27-118.31-50.48-236.3-101.68-351.22-159.56-56.08-28.24-112.22-56.48-165.19-90.52-13.71-8.81-19.94-20.2-21.35-36.23-5.12-58.07-11.55-116.03-16.52-174.11-3.53-41.27-6.04-82.64-8.1-124.01-5.85-117.48-6.81-235.08-8.16-352.67-.03-2.95,0-5.9,0-10.62Z"/>
  <path class="cls-2" d="M611.28,549.62c-7.99.46-15.87,2.5-24.23-.14-5.97-1.89-8.98,3.62-10.29,9.14l.2.29c.96-5.85.96-9.01-7.44-8.61-31.39,1.47-62.82.64-94.24-.3-6.75-.2-14.42.26-19.84,6.03.57-.88,1.1-1.75,1.63-2.62-.4-.13-.79-.25-1.19-.38-.05.97-.1,1.93-.15,2.9,3.78,12.14-5.97,9.97-12.18,11.54.01,0,.31.28.31.28.44-5.84,4.79-10.08,6.62-15.11-7.78-7.53-16.65-1.49-24.48-1.7-15.59-.43-31.39-1.35-47.01,0-10.21.88-20.17-.35-30.24-.96-6.69-.41-12.14.52-15.14,8.88-1.8,5.03-2.62,13.63-11.61,13.71,0,0,.3.3.3.3.22-8.61,7.78-13.13,11.29-20.34-5.34-6.16-12.64-1.66-17.89-1.29-12,.85-24.14-4.02-36.35,1.4-2.79,1.24-9.81-1.46-14.95-2.22-10.68-1.58-17.19,1.82-20.56,11.81-.65,1.94-.78,4.38-3.79,2.31l.29.24c3.34-11.92-2.61-15.08-13.3-14.92-27.76.41-55.53.22-83.29.73-6.74.12-12.89-4.38-19.71-1.92-1.9.69-1.94-.62-2.07-1.69-.21-1.67-.22-3.37-.29-5.06q-1.12-24.93,23.71-24.99c293.47-.3,586.94-.61,880.4-.83,36.37-.03,72.73.61,109.1.44,8.66-.04,12.66,1.5,12.66,11.57,0,20.29-.42,21.82-21.2,22.18-27.23.47-54.57,1.73-81.66-.27-12.39-.91-12.83,7.21-17.65,12.95-1.55,1.85-.45,8.76-5.83,4.62-3.43-2.64.11-6.75,2.05-7.95,3.36-2.09,6.88-5.83,5.77-7.89-2.27-4.18-7.64-1.74-11.63-1.69-18.4.21-36.89-.34-55.16.41-17.85.74-35.85-3.03-54.07,2.11-4.71,1.33-13.72-3.63-20.89.65-.65.39-1.1,1.11-1.65,1.68l.33.33c-3.72-11.03-13-4.64-19.02-4.9-20.14-.85-40.38.12-60.57.83-11.82.42-24.45-5.58-35.47,3.99-.46.4-2.8-5.51-8.35-5.34-22.86.72-45.89-1.35-68.6.56-19.26,1.62-38.26-.7-57.35-.63"/>
  <path class="cls-2" d="M635.61,646.01c-80.41,0-160.82.11-241.23-.03-84.43-.14-168.86-.52-253.29-.8-2.03,0-4.19.34-6.06-.22-4.23-1.29-11.28,1.86-12.42-3.07-1.66-7.15-1.09-15.16.15-22.52.73-4.3,6.26-3.11,9.94-3.41,47.69-3.95,95.48-2.16,143.22-2.22,232.94-.32,465.88-.31,698.82-.33,46.06,0,92.13.35,138.19.66,5.87.04,11.82.37,17.59,1.37,4.66.81,11.48-2.01,13.58,3.53,2.83,7.44,2.16,15.94.3,23.6-1.2,4.94-7.57,2.95-11.09,3.01-28.13.48-56.26.16-84.4.19-72.78.09-145.55.28-218.33.34-64.99.06-129.99.01-194.98.01v-.1Z"/>
  <path class="cls-2" d="M588.51,264.44c-.94,2.34-1.74,4.75-2.82,7.02-11.39,23.91-23.09,47.68-34.09,71.78-3.56,7.78-7.17,9.29-14.67,4.97-9.08-5.24-18.65-9.74-28.31-13.85-6.58-2.8-7.91-6.65-5.02-12.75,11.85-25.04,23.58-50.13,35.57-75.09,1.17-2.44,1.57-7.02,6.96-4.42,13.22,6.39,26.65,12.36,40.03,18.42,1.84.83,2.36,2.16,2.35,3.94Z"/>
  <path class="cls-2" d="M592.44,144.56c12.59,6.22,26.69,12.86,40.42,20.19,3.67,1.96,1.57,6.14.13,9.14-11.81,24.7-23.77,49.34-35.52,74.07-2.05,4.31-3.82,5.16-8.47,2.71-12.25-6.45-24.84-12.29-37.48-17.97-4.77-2.15-3.44-4.91-1.94-8.05,12.05-25.45,24.15-50.88,36.17-76.34,1.09-2.31,1.67-4.95,6.68-3.74Z"/>
  <path class="cls-2" d="M463.94,285.12c1.84-15.83,10.53-29.13,16.53-43.44,2.44-5.82,5.59-11.35,7.97-17.19,2.86-7.04,6.77-9.31,13.41-4.33,1.66,1.24,3.73,1.94,5.62,2.86,26.61,12.97,26.46,12.9,13.19,40.39-7.51,15.57-14.33,31.47-21.71,47.1-2.21,4.68-2.1,12.92-7.72,13-6.8.1-14.21-4.73-17.88-10.23-5.43-8.14-10.92-17.2-9.41-28.16Z"/>
  <path class="cls-2" d="M673.77,207.77c-.79,3.47-1.13,8.25-2.95,12.38-6.82,15.38-14.01,30.61-21.32,45.76-1.79,3.7-3.77,7.74-8.32,9-2.45.68-33.29-14.42-35-16.64-2.01-2.6-.37-5.07.54-6.99,11.85-25.07,23.96-50.03,35.97-75.03,2.52-5.24,5.87-4.51,10.25-2.16,13.1,7.01,19.22,18.2,20.83,33.68Z"/>
  <path class="cls-2" d="M577.45,362.45c-19.02-.07-22.5-5.36-14.35-22.54,10.11-21.31,20.73-42.39,30.61-63.8,3.4-7.37,7.07-9.87,14.29-4.94,3.81,2.6,8.06,4.57,12.12,6.82,17.83,9.85,18,9.93,9.41,27.85-6.19,12.93-12.38,25.91-19.53,38.31-7.04,12.21-18.32,18.24-32.55,18.3Z"/>
  <path class="cls-2" d="M552.07,133.8c24.24-.22,27.62,5.06,19.14,23.27-8.53,18.32-17.12,36.62-25.7,54.92q-7.21,15.38-21.64,7.77c-1.86-.98-3.67-2.07-5.54-3.04q-21.08-10.93-10.45-32.88c4.79-9.84,9.6-19.68,14.76-29.32,7.16-13.38,18.73-19.95,29.44-20.71Z"/>
  <path class="cls-2" d="M75.98,628.19c.03,18.39,0,17.76-16.47,18.44-14.83.62-10.44-10.16-10.8-17.26-.38-7.65-2.36-16.25,11.77-16.3,13.83-.05,17.79,4.55,15.49,15.12Z"/>
  <path class="cls-2" d="M1191.56,628.66c1.88-5.32-4.53-15.99,10.09-15.29,15.92.77,16.36.05,16.11,18.1-.07,4.86,4.9,13.57-6.41,14-19.44.73-19.44.78-19.79-16.81Z"/>
  <path class="cls-2" d="M1218.15,534.85c-2,5.03,5.27,15.84-9.58,14.97-16.43-.96-16.93-.28-16.4-17.94.18-6.05-4.49-16.09,9.36-15.54,16.51.66,16.54,0,16.62,18.51Z"/>
  <path class="cls-2" d="M650.95,1579.58c-13.42,2.52-26.52.37-39.7-.8-5.67-.51-10.59-2.02-10.06-8.41.62-7.49,6.45-4.41,10.66-3.8,16.72,2.44,33.44,1.71,50.18.19,3.17-.29,7.97-3.4,8.1,3.61.08,4.33.6,8.35-6.12,8.05-4.34-.19-8.33,4.28-13.06,1.14Z"/>
  <path class="cls-2" d="M75.71,532.42c.37,16.49-5,20.82-19.94,17.83-4.41-.88-5.54-2.08-5.63-5.88-.08-3.79-.47-7.58-.55-11.37-.32-16.65-.26-15.78,15.98-16.5,14.41-.64,8.92,9.3,10.13,15.92Z"/>
  <path class="cls-2" d="M140.68,1032.15c0,5.86-.05,11.73.02,17.59.05,4.08-2.22,6.44-5.87,6.85-4.29.47-5.06-2.96-5.52-6.32-1.65-12.06-3-24.16-2.28-36.34.31-5.16,2.16-10.98,8.21-10.73,5.6.24,4.04,6.29,4.46,10.15.68,6.24,1.03,12.52,1.51,18.78-.18,0-.36.01-.54.02Z"/>
  <path class="cls-2" d="M1134.77,1173.97c-.93,9.23-1.86,18.45-2.79,27.68-.3,2.94-.31,6.32-4.56,5.96-3.16-.26-5.22-2-6.05-5.45-3.59-14.79-.77-29.26,1.96-43.73.38-2.02,1.9-4.5,4.3-3.45,2.76,1.21,6.83,1.61,6.69,6.27-.12,4.22-.03,8.45-.03,12.68.16.01.32.03.48.04Z"/>
  <path class="cls-2" d="M129.6,1103.09c0-5.06-.43-10.18.12-15.18.55-4.92,4.45-7.33,9.01-7.15,5.3.21,2.96,4.93,3.3,7.68,1.36,10.87,3.01,21.71,2.52,32.76-.26,5.89-1.95,9.77-8.44,10.3-7.15.58-5.01-6.4-5.65-8.88-1.59-6.14-.52-12.98-.52-19.53-.12,0-.23,0-.35,0Z"/>
  <path class="cls-2" d="M1139.91,948.87c.61,7.5,2.38,15,.17,22.51-.9,3.06-1.42,5.52-5.45,5.28-3.63-.21-5.05-2.02-5.64-5.37-2.35-13.36-1.41-26.73-.46-40.13.32-4.54,2.91-5.12,6.66-5.33,4.36-.24,4.71,2.28,4.71,5.45,0,5.86,0,11.72,0,17.59Z"/>
  <path class="cls-2" d="M123.85,789.94c0-8.28.14-14.57-.05-20.85-.14-4.85,2.93-6.98,6.78-7.6,4.67-.76,5.61,3.52,5.71,6.6.45,13,.5,26.02.45,39.03-.02,5.24-3.64,7.45-8.35,7.27-6.17-.23-5.66-7.46-5.02-9.08,2.35-5.96-.38-11.68.46-15.36Z"/>
  <path class="cls-2" d="M1129.76,787.49c0-6.72-.2-13.45.07-20.16.18-4.55,3.04-6.41,7.59-6.43,5.51-.02,4.42,3.91,4.46,7.01.16,12.18.3,24.36.17,36.54-.05,4.46-1.53,8.72-7.03,8.58-6.02-.16-5.64-4.88-5.59-9.16.07-5.46.02-10.92.02-16.38.1,0,.21,0,.31,0Z"/>
  <path class="cls-2" d="M1142.28,870.17c0,6.3-.05,12.6.02,18.9.04,4.2-1.29,7.6-5.79,8.27-4.63.69-5.96-3.62-6.19-6.46-1.12-13.79-1.47-27.62.54-41.41.62-4.23,3.56-5.7,7.04-5.64,4.96.08,4.18,4.31,4.26,7.45.17,6.29.05,12.59.05,18.89.03,0,.06,0,.08,0Z"/>
  <path class="cls-2" d="M1013.45,1415.5c-4.76.4-7.38.1-7.79-3.21-.45-3.66-1.49-7.64,3.14-9.86,10.17-4.88,20.35-9.76,30.41-14.85,4.46-2.26,8-2.27,10.61,2.55,2.87,5.32-2.17,7.21-4.78,8.63-11.02,5.97-22.89,10.31-31.59,16.74Z"/>
  <path class="cls-2" d="M137.03,871.77c0,5.87.3,11.76-.11,17.6-.26,3.77-1.58,7.87-6.3,7.98-4.68.1-4.55-4.53-5.09-7.42-2.48-13.27-1.19-26.73-1.27-40.11-.02-3.73,1.88-5.02,5.38-5.3,4.49-.37,6.34,2.45,6.54,5.91.42,7.1.13,14.23.13,21.35.24,0,.48,0,.72,0Z"/>
  <path class="cls-2" d="M139.1,952.15c0,5.89.16,11.78-.06,17.66-.13,3.66-2.06,7.04-5.77,7.23-3.85.19-5.82-3.29-6.12-6.81-.95-11.27-2.04-22.57-2.1-33.86-.03-4.91,2.03-11.23,7.98-11.33,6.09-.1,5.22,6.73,5.9,10.74.89,5.32.22,10.9.22,16.37-.02,0-.03,0-.05,0Z"/>
  <path class="cls-2" d="M923.66,1450.66c.46,5.55-2.73,7-5.75,8.5-9.37,4.65-18.63,9.53-28.21,13.71-2.93,1.28-7.39,3.82-9.71-1.31-1.93-4.26.62-7.71,3.96-9.54,10.62-5.8,21.47-11.17,32.32-16.54,7.24-3.58,5.58,3.59,7.38,5.18Z"/>
  <path class="cls-2" d="M1126.19,1032.89c.57-7.57.83-15.18,1.9-22.67.31-2.2.12-6.39,4.88-5.77,3.85.5,6.46,2.04,6.42,6.25-.13,13.09-.3,26.19-.56,39.28-.08,4.27-2.93,5.44-6.75,5.85-5.39.57-5.11-3.05-5.17-6.43-.09-5.49-.02-10.98-.02-16.48l-.7-.03Z"/>
  <path class="cls-2" d="M1136.58,1106.21c0,6.7.33,13.43-.17,20.1-.18,2.46-.5,6.5-4.26,6.54-3.59.04-6.84-2.7-7.1-6.01-1.07-13.79-1.67-27.63.59-41.4.55-3.34,1.9-5.22,5.77-4.75,3.45.42,5.58,1.86,5.64,5.4.11,6.71.03,13.42.03,20.13-.17,0-.34,0-.51,0Z"/>
  <path class="cls-2" d="M944.05,1436.94c-.14-4.12,3.06-5.07,5.47-6.48,9.39-5.51,19.52-9.34,29.66-13.24,3.63-1.4,6.25-.97,7.11,1.93.86,2.93,2.68,6.03-1.77,9.62-9.96,8.04-22.63,8.9-33.45,14.48-3.92,2.02-6.33-2.56-7.02-6.31Z"/>
  <path class="cls-2" d="M124.16,708.88c0-5.45-.05-10.89.02-16.34.04-3.51.5-6.87,5.14-7.06,4.3-.18,6.02,2.78,6.51,6.24,1.75,12.5,1.73,25.09.15,37.58-.36,2.86-2.09,6.77-6.64,5.99-3.4-.58-4.79-3.36-4.91-6.33-.26-6.69-.08-13.39-.08-20.09-.06,0-.13,0-.19,0Z"/>
  <path class="cls-2" d="M133.31,1178.95c0-5.01.45-10.08-.13-15.03-.6-5.1,1.47-6.57,6.1-7.04,4.41-.45,5.55,1.21,6.26,5.34,2.13,12.46,1.63,25,1.9,37.52.11,4.94-2.72,8.15-7.39,8.49-5.87.42-4.04-5.5-4.59-8.11-1.45-6.88-1.33-14.09-1.83-21.17-.11,0-.22,0-.32,0Z"/>
  <path class="cls-2" d="M796.15,1513.3c.65,2.51-.81,3.48-2.98,4.44-11.45,5.1-22.83,10.37-34.21,15.61-3.4,1.56-5.78,1.81-8.26-2.19-2.99-4.83.59-5.91,3.17-7.53,10.27-6.48,21.22-11.64,32.47-16.21,5.95-2.42,8.5.62,9.81,5.89Z"/>
  <path class="cls-2" d="M219.79,1392.9c1.85-5.53,5.06-9.39,11.17-6.58,9.85,4.53,19.41,9.71,29.1,14.58,3.04,1.53,4.46,3.92,3.54,7.21-1.1,3.95-4.67,5.47-7.91,4.65-12.85-3.23-23.96-10.21-34.87-17.48-.95-.63-2.43-.94-1.03-2.38Z"/>
  <path class="cls-2" d="M694.35,1562.22c-2.79.51-4.7-1.23-5.84-3.54-1.36-2.78.35-4.78,2.59-6.31,9.76-6.68,20.42-11.45,31.82-14.45,2.53-.67,6.31-1.98,7.54,2,1.04,3.34-.37,6.07-3.03,8.88-9.03,9.54-22.06,8.62-33.08,13.43Z"/>
  <path class="cls-2" d="M853.61,1478.32c3.26-1.11,5.33.27,6.25,2.82,1.02,2.86.7,5.39-2.24,7.65-8.06,6.18-16.94,10.05-27.08,10.56-2.87.14-5.78-1.09-8.15,1.57-1.87,2.1-3.82,5.2-6.47.84-1.91-3.14-.57-5.67,2.15-7.5,11.02-7.4,22.63-13.5,35.53-15.94Z"/>
  <path class="cls-2" d="M1143.15,712.83c-.18,3.04-.56,9.34-.95,15.64-.2,3.21-1.57,5.91-4.78,6.59-4.44.94-6.71-3.1-6.86-5.87-.7-12.59-.91-25.24-.52-37.84.15-4.74,5.61-5.25,8.92-5.3,3.95-.06,3.03,4.34,3.25,7.05.45,5.46.55,10.95.94,19.72Z"/>
  <path class="cls-2" d="M447.69,1500.4c-11.01-.58-22.65-3.53-32.65-10.88-2.26-1.66-7.2-2.52-5.41-7.08,1.38-3.51,4.88-4.57,8.45-3.77,12.27,2.76,23.97,7.05,34.38,14.25,1.89,1.31,4,3.6,3.03,6.1-1.13,2.9-4.04,2.32-7.79,1.37Z"/>
  <path class="cls-2" d="M1129.47,1251.9c.47,6.99-.86,14.88-2.4,22.73-.56,2.83-.94,6.11-5.08,5-2.71-.73-5.73-1.44-6.02-5.32-.91-12.2,0-24.32,1.91-36.35.6-3.79,3.06-5.5,7.31-4.86,4.16.62,4.25,3.32,4.28,6.35.03,3.79,0,7.58,0,12.44Z"/>
  <path class="cls-2" d="M139.17,1253.64c-.02-.42-.13-.85-.06-1.25,1.3-6.88-6.41-18.79,5.96-19.26,9.28-.36,5.28,11.66,6.61,18.01,1.51,7.24.53,15,.6,22.53.03,3.36-1.08,5.41-5.03,5.53-3.45.11-5.62-.6-6.04-4.39-.78-7.05-1.67-14.08-2.51-21.12.15-.02.31-.04.46-.06Z"/>
  <path class="cls-2" d="M291.36,1416.64c10.09,4.76,21.43,9.9,32.53,15.52,2.6,1.32,1.8,4.59.37,6.75-2.05,3.1-6.96,4.2-8.6,2.88-8.98-7.24-22.97-4.44-30.07-15.47-1.14-1.77-4.6-2.09-2.64-5.3,1.57-2.56,3.59-4.68,8.41-4.37Z"/>
  <path class="cls-2" d="M345.17,1451.83c1.57-4.51,3.33-9.24,10.13-5.63,9.54,5.06,18.94,10.46,28.75,14.94,4.72,2.16,5.1,5.01,3.85,8.95-2.09,6.59-6.25,2.2-8.93,1.03-9.86-4.33-19.5-9.17-29.14-13.96-2.04-1.01-5.54-.96-4.66-5.31Z"/>
  <path class="cls-2" d="M1121.81,1343.62c-12.17-1.53-9.49-11.85-11.97-18.46-1.52-4.06-.58-9.1-.41-13.7.16-4.22-1.71-9.71,5.96-9.74,6.61-.02,9.09,3.25,8.7,9.33-.69,10.77-1.5,21.53-2.28,32.56Z"/>
  <path class="cls-2" d="M1104.1,1360.15c0,1.25.08,1.69-.01,2.09-.74,3.22-32.79,19.65-35.89,18.07-3.62-1.85-6.93-4.94-2.27-8.58,8.59-6.71,17.61-13,27.95-16.77,5.24-1.91,8.95.41,10.21,5.18Z"/>
  <path class="cls-2" d="M481.38,1505.8c12.58,4.53,24.51,10.45,36.08,17.09,2.39,1.37,3.47,3.78,2.04,6.41-1.32,2.42-3.62,3.61-6.35,2.44-11.79-5.02-23.65-9.9-35.21-15.4-2.97-1.41-1.58-5.27-.93-8.14.56-2.47,1.83-3.6,4.38-2.41Z"/>
  <path class="cls-2" d="M171.79,1354.35c11.24,3.16,21.9,8.77,31.91,15.73,2.47,1.72,2.58,4.14,1.48,6.66-1.22,2.78-3.41,3.25-6.21,2.54-11.96-3.03-22.12-9.47-32.04-16.48-2.13-1.5-2.3-3.33-1.86-5.42.74-3.5,3.73-2.55,6.72-3.02Z"/>
  <path class="cls-2" d="M583.23,1557.94c-.72,4.16-3.89,3.67-6.68,3.05-12.71-2.79-24.45-7.91-34.89-15.69-4.8-3.57-1.92-6.2,2.01-7.54,6.24-2.13,35.81,11.74,38.51,17.78.34.76.67,1.53,1.05,2.4Z"/>
  <path class="cls-2" d="M144.12,1320.13c0-1.69-.21-3.4.04-5.05.76-5.01-3.92-13.07,6.22-13.1,8.78-.03,6.26,7.47,6.61,12.32.55,7.53.8,15.16-2.09,22.46-1.18,2.98-3.11,5.67-6.19,5.37-3.46-.33-3.81-3.99-3.93-6.83-.21-5.05-.06-10.11-.06-15.17h-.6Z"/>
  <path class="cls-2" d="M1002.28,583.27c-2.32-1.4-4.47-7.37-7.35-1.51-4.23,8.62-8.98,6.68-15.42,1.4,6.55-4.3,11.85-10.66,23.1-3.76-5.65-7.17-1.34-11.2.9-16.52,3.91,4.44,5.95,8.42.48,12.54-3.08,2.32-1.41,5.34-1.98,8.02l.26-.16Z"/>
  <path class="cls-2" d="M965.04,790.32c-8.57,1.07-9.73,13.82-21.15,13.46,7.8-7.43,14.91-13.58,12.76-25.02,4.84,1.77,8.68,2.83,12.41,3.8,4.3,1.12,3.32,4.03-.95,5.08-1.55-2.58-4.15-3.77-6.02-1.4-2,2.55,1.97,2.62,2.95,4.07Z"/>
  <path class="cls-2" d="M856.83,894.48c1.15-9.18,10.8-9.21,15.83-14.29,2.32-2.35,6.1.69,7.77,3.93,3.11,6.02-4.3,5.93-6.03,9.39-1.92,3.84-2.43-1.23-3.6-2.74-7.41-9.56-8.86,4.07-13.97,3.72Z"/>
  <path class="cls-2" d="M602.02,846.23c-2.76-5.01,5.48-9.97,1.27-13.6-3.73-3.21-7.69,3.37-12.3,3.52-.57-4.51,2.17-5.95,5.89-6.49,4.26-.61,9.47.33,10.14-6.16.47-4.59,3.69-.18,5.12-1.59,3.27,3.71-1.76,1.44-1.99,2.75-.58,3.35-6.27,6-1.32,10.09-2.96,3.41-.12,10.28-6.81,11.47Z"/>
  <path class="cls-2" d="M278.84,982.81c-7.25,5.09-4.3,16.57-13.11,20.37-1.49.64-2.35,4.02-4.58,1.29-.95-1.17-2.13-3.78-1.7-4.21,6.14-6.08,9.88-14.95,19.39-17.46Z"/>
  <path class="cls-2" d="M398.77,760.14c-7.13-3.8-7.13-8.84-2.38-16.49,3.03-4.87,9.29-8.4,8.08-15.64-.31-1.82,1.06-3.39,2.95-2.01,2.14,1.56,5.41,3.12,2.32,6.81-3.22,3.84-6.45,7.71-9.27,11.85-3.23,4.74-7.69,9.62-1.7,15.49Z"/>
  <path class="cls-2" d="M256.96,1124.43c-2.91-6.56,1.43-12.62,4.83-15.57,6.45-5.6,5.49-9.09-3.3-14.93,11.75,3.78,12.61,9.4,6.06,19.85-2.3,3.67-5.23,6.94-7.87,10.4l.28.24Z"/>
  <path class="cls-2" d="M323.28,1226.66c-9.37,5.98-10.5,15.56-14.92,23.23-3.16-16.56-.97-20.31,14.92-23.23Z"/>
  <path class="cls-2" d="M725.8,1265.1c1.17,9.25-6.62,5.66-9.54,6.86-4.72,1.94.17-6.77-4.81-7.21,1.46-3.52,6.65-4.6,6.14-9.4,1.32,4.63,8.49,4.78,8.21,9.75Z"/>
  <path class="cls-2" d="M1015.17,1179.64c-1.11-10.11,7.34-15.71,11.27-22.92,1.88,7.22-4.52,20.3-11.55,22.71l.28.21Z"/>
  <path class="cls-2" d="M242.75,894.82c4.52-2.95,4.91-7.38,4.38-12.14,6.49.26,2.31-9.53,8.55-9.11,1.13.07,2.5,2.25,3.08,3.73,1.28,3.26-11.81,16.98-16.35,17.33l.33.2Z"/>
  <path class="cls-2" d="M373.17,581.29c-1.8,2.47-4.4,6.27-4.52,6.19-5.27-3.38-9.38-1.08-13.34,2.34.36-.21,1.03-.4,1.05-.62.28-4.79,1.72-9.22,5.93-11.71,3.17-1.87,5.31,3.97,7.94,2.62,3.06-1.57,1.92.95,2.94,1.18Z"/>
  <path class="cls-2" d="M616.89,591.01c2.51-3.04-3.2-13.7,8.72-8.56,3.05,1.31,8.15-4.65,5.44-9.65-1.97-3.65.27-4.35,1.93-5.73.59-.49,2.6-.39,2.95.13,1.31,1.92.42,3.65-.67,5.66-2.47,4.53-8.28,10.53-18.57,17.92l.19.25Z"/>
  <path class="cls-2" d="M721.63,739.36c8.34,1.39,7.42-7.25,6.89-9.4-1.59-6.42,6.7-6.25,5.94-11.2,4.82,4.18-.03,6.85-.81,10.49-.9,4.16-4.22,7.42-3.94,12.02.08,1.32-3.43,2.87-5.29,4.31-.62-2.27-4.22-3.28-2.73-6.44l-.06.22Z"/>
  <path class="cls-2" d="M301.11,885.3c0-5,.27-9.38-.1-13.71-.23-2.65-2.97-5.62,2.55-5.91,4.14-.22,3.22,4.28,5.78,5.35-3.81,3.88-.2,12.14-8.23,14.28Z"/>
  <path class="cls-2" d="M926.15,1156.27c-.07,8.97-8.69,12.94-8.48,19.96-12.56-11.97,1.43-13.78,8.48-19.96Z"/>
  <path class="cls-2" d="M695.94,1139.6c-3.96,7.22-5.08,17.28-16.74,16.7,1.14-10.18,8.1-14.34,17.04-16.47l-.3-.24Z"/>
  <path class="cls-2" d="M503.22,898.92c-1.28-8.41-3.05-14.52-5.82-20.44-.86-1.84.42-4.68.72-7.06,1.04.43,2.04,1.1,3.13,1.27,5.78.87.16,3.83,1.04,5.75,1.03,2.27-2.1,5.48,2.26,7.37,8.74,3.78,3.28,7.55-1.32,13.12Z"/>
  <path class="cls-2" d="M367.36,1120.77c4.21,3.84,1.74,6.98-1.45,9.41-2.17,1.66-5.35,1.99-7.53,3.64-1.95,1.48-.42,8.25-5.33,4.73-2.73-1.96,3.64-5.03,2.56-8.64,5.91-.37,6.23-8.38,12.08-8.83l-.33-.32Z"/>
  <path class="cls-2" d="M907.53,1389.71c-2.05-4.25-2.89-10.05-13.4-6.82,5.87-3.98,11.57-8.39,11.93-8,4.04,4.49,8.02,9.64,1.47,14.82Z"/>
  <path class="cls-2" d="M1063.96,1025.33c-3.78,5.19-7.04,9.67-10.31,14.16-1.34-1.33-2.68-2.66-4.01-4,7.71-2.54,2.91-10.19,5.98-14.62.51,4.56,5.08,2.94,8.34,4.46Z"/>
  <path class="cls-2" d="M998.89,1233.07c-2.66-10.22,7.79-13.09,13.08-22.19-1.14,11.13-10.57,14.59-13.08,22.19Z"/>
  <path class="cls-2" d="M302.63,1180.1c.76-4.8,1.52-9.61,2.36-14.93,4.58,4.84-1.01,16.08,10.88,14.45.18-.03,1.3,2.67.89,3.14-1.18,1.34-2.89,2.25-4.46,3.22-2.48,1.54-2.41-.46-2.58-1.97-.53-4.88-2.68-6.78-7.38-4.06,0,0,.29.15.29.15Z"/>
  <path class="cls-2" d="M204.98,757.8c.04-1.03-2.93,1.35-1.49-1.15.39-.68,2.1-.61,3.21-.88.41,2,1.8,5.22,1.08,5.79-4.68,3.71-2.72,11.18-8.36,13.99-.24.12-2.23-2.41-2.1-2.57,3.11-3.6.84-10.19,6.8-12.19,1.16-.39,1.82-1.55.86-2.99Z"/>
  <path class="cls-2" d="M628.76,1180.44c2.22-7.76,6.52-14.46,8.44-22.14.15-.6,2.3-1.25,3.26-.98,2.3.65,1.18,2.58.94,4.06-1.35,8.28-9.04,12.18-12.63,19.05Z"/>
  <path class="cls-2" d="M333.05,722.25c-7.45.61-5.5-7.66-9.89-10.36-3.46-2.13,1.41-3.4,2.71-4.99,1.2,2.61,8.4-.2,5.69,4.22-3.09,5.04,3.67,7.11,1.49,11.13Z"/>
  <path class="cls-2" d="M496.55,1010.82c-6.01-1.57.44,5.1-3.92,5.01,2.56-7.57-1.8-12.65-8.48-18.53,11.04.6,18.6,1.44,12.34,13.49l.06.03Z"/>
  <path class="cls-2" d="M503.27,582.2c-2.31-5.88,2.8-9.46,3.38-15.45,8.2,7.97,4.15,14,.42,20.24-4.07-1.27.92-4.59-1.91-5.84-.26-.11-.68-.07-.94.07-.36.19-.64.54-.95.81,0,0,0,.17,0,.17Z"/>
  <path class="cls-2" d="M257.31,1042.13c6.42-4.76,12.84-9.53,23.91-7.26-8.7,5.02-16.29,6.17-23.91,7.26Z"/>
  <path class="cls-2" d="M748.53,1229.34c2.12-10.91,12.46-7.3,16.85-12.7-6.84,8.57-10.02,10.96-16.85,12.7Z"/>
  <path class="cls-2" d="M302.35,1179.95c-5.2,6.67-10.41,13.33-15.61,20,2.77-8.62,5.87-16.98,15.87-19.86.02.01-.26-.14-.26-.14Z"/>
  <path class="cls-2" d="M714.48,792.66c2.16-3.81,4.22-7.66,6.53-11.35.44-.7-.27-5.48,2.69-1.37.9,1.26,5.13.41,2.74,3.66-3.08,4.18-3.12,12.79-11.96,9.06Z"/>
  <path class="cls-2" d="M320.26,838.02c-3.46,5.62,21.16,4.74,4.6,11.66-10.5,4.39,3.71-10.23-4.6-11.66Z"/>
  <path class="cls-2" d="M468.99,579.93c-2.61,15.33-14,1.96-18.56,8.41-.11-1.51-.17-3.03-.34-4.54-.26-2.39,2.05-3.33,2.89-2.44,5.25,5.6,10.05.25,16.01-1.43Z"/>
  <path class="cls-2" d="M367.68,1121.08c-.84-6.43,5.76-9.84,6.37-15.69,3.68,2.75,4.66-3.49,6.24-2.5,3.63,2.27.34,4.28-1.55,5.18-5.65,2.69-.11,15.24-11.37,12.7-.01-.01.32.3.32.3Z"/>
  <path class="cls-2" d="M1026.99,731.7c.64,9.96-5.11,16-13.25,20.58,2.29-8.16,10.27-12.84,13.25-20.58Z"/>
  <path class="cls-2" d="M743.11,1249.92c-2.47-.7-1.45,9.32-8.07,5.75-2.5-1.35-4.5,6.21-5.7.63-1.01-4.7,6.3-8.02,7.73-6.83,4.1,3.43,5.79.74,6.04.44Z"/>
  <path class="cls-2" d="M943.56,749.08c2.27,4.09-.87,16.58-4.29,16.71-.92.03-2.13-1.03-2.78-1.91-1.24-1.7-1.99-3.13.41-5.16,3.01-2.53,5.88-5.6,6.4-9.94l.25.29Z"/>
  <path class="cls-2" d="M777.78,1370.77c-.18-.82-.5-1.63-.53-2.45-.12-2.7-6.58-3.51-2.22-7.47.56-.51,1.35-.78,2.03-1.16.71,3.41,1.56,6.8,2.06,10.23.15,1.03-1.29,2.9-.94,3.21,2.33,2.12,4.8,4.1.57,6.49-1.2.68-4.43,2.09-2.91-2.1.54-1.48.9-3.01,1.33-4.53.21-.74.41-1.49.62-2.24Z"/>
  <path class="cls-2" d="M951.06,1190.48c-11.2-8.73,3.68-11.5,1.96-17.5,1.18,1.03,2.21,2.6,3.58,3,4.42,1.29.69,2.97.19,4.11-1.43,3.29-6.16,4.45-5.73,10.38Z"/>
  <path class="cls-2" d="M789.74,1179.88c2.08-7.52,10.39-7.38,14.37-12.72-3.74,3.32-3.24,8.27-4.81,12.07-3.43,8.28-6.94-6.05-9.84.4l.28.25Z"/>
  <path class="cls-2" d="M957.4,873.5c-1.65-6.27,5.87-8.44,6.77-13.8.22-1.3,1.92-2.47,3.61-.66,1.14,1.23,2.6,2.36,1.47,4.16-2.81,4.49-3.77,10.83-11.85,10.29Z"/>
  <path class="cls-2" d="M777.54,867.12c-8.07-9.3,2.37-10.7,6.06-16.75,1.64,7.92-6.33,10.84-6.06,16.75Z"/>
  <path class="cls-2" d="M398.18,791.19c.64,1.14,1.2,2.25,1.85,3.3,2.61,4.21,5.62,8.41,3.12,13.65-.6,1.25-3.68,2.32-3.92.83-.89-5.54-8.16-10.47-1.05-17.78Z"/>
  <path class="cls-2" d="M300.22,816.21c10.82.45-7.27,15.74,11.86,11.67-5.97,3.8-10.41,4.99-13.22,1.68-3.94-4.64,3.12-8.74,1.36-13.35Z"/>
  <path class="cls-2" d="M767.72,1160.86c4.7-2.03,9.18-4.38,11.47-9.3.89-1.91,2.02-2.45,3.7-1.35.48.31.77,1.4.66,2.05-.67,4.22-11.67,10.15-15.83,8.6Z"/>
  <path class="cls-2" d="M407.08,1168.31c.97-9.11-5.71-18.79,3.83-29.95-2.5,11.68,1.59,21.17-3.83,29.95Z"/>
  <path class="cls-2" d="M433.99,1225.23c1.09-5.02-.35-10.8,5.92-12.67,3.14-.93,3.99,8.06.48,8.64-3.03.5-3.55,3.05-6.41,4.03Z"/>
  <path class="cls-2" d="M446.84,719.4c2.81-3.54,6.12-6.11,7.23-9.42,3.09-9.21,1.18,3.88,3.35.7.56-.81,7.26-1.93,2.06,3.39-3.44,3.52-7.56,4.5-12.64,5.32Z"/>
  <path class="cls-2" d="M425.49,708.41c-.73,5.64,3.77,14.29-1.06,16.29-11.26,4.67-3.84-4.44-3.41-7.05.54-3.24,2.9-6.17,4.47-9.24Z"/>
  <path class="cls-2" d="M645.63,733.71c9.38,4.27,10.88,8.33,7.82,13.58-3.1,5.3-7.57,4.03-8.54-1.67-.85-5,13.03-2.55.72-11.91Z"/>
  <path class="cls-2" d="M800.6,796.91c-5.82-9.4.68-13.37,7.74-17.13-2.97,5.54-8.83,9.94-7.74,17.13Z"/>
  <path class="cls-2" d="M730.15,807.41c5.17.99,10.33,1.97,15.65,2.99q-12.01,3.47-15.36-3.27l-.29.28Z"/>
  <path class="cls-2" d="M1056.84,1260.23c-6.47-5.27-5.82-10.68-.35-17.17,1.6,6.4,4.75,11.75.35,17.17Z"/>
  <path class="cls-2" d="M789.47,1179.64c-1.63,1.34-1.34,2.93-.34,4.39,1.19,1.74,4.71,2.22,3.56,5.15-2.37,6.01-3.79-1.18-6.07-.67-2.24.5-3.28,5.6-6.59,1.79.44-.08,1.16-.02,1.28-.26.74-1.47,1.57-2.96,1.97-4.55.87-3.45,2.75-5.53,6.47-5.6,0,0-.27-.25-.27-.25Z"/>
  <path class="cls-2" d="M1013.4,1093.05c-1.91-4.96-2.23-9.32,2.18-12.36,2.96-2.04,4.88.63,5.49,2.69,2.05,6.93-6.55,5.03-7.67,9.66Z"/>
  <path class="cls-2" d="M441.84,583.65c-4.58-2.76-5.12,6.31-10.67,2.81,4.09-5.19,8.13-10.32,12.17-15.45,0,0-.32.24-.32.24-1.62,1.43,4.87.93.69,3.58-2.49,1.58-6.28,4.56-2.08,8.56l.21.26Z"/>
  <path class="cls-2" d="M305.83,702.07c.41,4.64.64,6.54.74,8.46.22,4.17.61,8.51-4.66,10.08-.98.29-2.17-.12-3.27-.2,4.11-3.15.76-7.34,1.6-10.84.69-2.86,2.95,2.93,4.28-.02.63-1.4.58-3.11,1.31-7.47Z"/>
  <path class="cls-2" d="M256.68,1124.19c-4.55,1.86-2.75,9.75-9.81,9.93-1.7.04-2.82,1.75-3.79-.89-.4-1.08-1-2.07-1.51-3.11,7.01,3.18,7.12-12.21,15.37-5.7.01.01-.27-.23-.27-.23Z"/>
  <path class="cls-2" d="M952.62,1078.59c-5.03-8.34,6.31-9.37,4.85-15.59-.37-1.59,1.33-1.17,2.32-.51,2.09,1.39,4.55,3.02,2.45,5.73-2.72,3.52-6.05,6.57-9.63,10.37Z"/>
  <path class="cls-2" d="M643.07,869.49c-1.63-3.17-2.57-5.97,1.53-8.34,2.63-1.52,8.07-1.25,5.62-7.1-.31-.74.02-2.71,1.88-1.84.95.45,2.14,1.34,2.35,2.24.68,2.82-2.9,6.66-7.08,9.49-1.72,1.16-1.37,4.69-4.3,5.54Z"/>
  <path class="cls-2" d="M466.95,1152.21c6.15-.54,8.23-5.02,9.8-10.87,5.17,13.14,4.87,13.46-9.8,10.87Z"/>
  <path class="cls-2" d="M217.64,851.2c-.2,1.5.06,3.01-.57,3.7-3.64,3.97-2,11.4-8.66,13.19-.48.13-2.25-2.04-2.07-2.35,3.05-5.17,3.68-12.26,11.3-14.54Z"/>
  <path class="cls-2" d="M959.45,1041.59c-6.54-.66-4.05,6.11-7.63,8.12-.6.34-2.48-1.6-3.76-2.49,6.13-.3.51-8.08,5.85-9.11,2.5-.48,3.79.54,5.55,3.49Z"/>
  <path class="cls-2" d="M451.59,842.25c-7.94-.03-9.03-8.11-13.76-11.89,6.21,2.13,11.66,5.13,13.51,12.19l.25-.3Z"/>
  <path class="cls-2" d="M1013.8,1048.46c-4.64,2.87-6.25,7.18-6.05,12.43.06,1.58.41,3.64-1.86,3.94-1.01.13-2.25-.59-3.21-1.2-3.43-2.16-.36-6.12.16-6.18,5.73-.67,1.43-13.93,11.23-8.9l-.27-.1Z"/>
  <path class="cls-2" d="M207.47,585.13c-8.14-5.98-2.09-10.46,1.57-13.96,2.76-2.64,8.69-3.53,5.15,3.51-1.63,3.26-4.89,6.13-6.72,10.45Z"/>
  <path class="cls-2" d="M1036.18,1054.74c-5.01-1.4-4.1-4.88-.75-5.85,5.27-1.54,3.57-5.08,4.31-8.34,10.01,7.34-5.64,9.07-3.38,14.56l-.18-.37Z"/>
  <path class="cls-2" d="M695.44,824.31c-4.24-6.56,2.51-10.66,3.2-17.2,3.98,5.52,6.3,9.73-1.68,11.66-4.26,1.03.04,4.24-1.73,5.8l.21-.25Z"/>
  <path class="cls-2" d="M288.36,580.03c-3.02,4-5.93,8.16-10.81,10.04-.35.14-2.68-2.57-2.49-3.7.94-5.7,8.99-4.01,10.39-9.53,1.56.52,3.1,1.07,2.92,3.19Z"/>
  <path class="cls-2" d="M383.65,1120.27c3.6,1.88-2.82,13.42,7.59,6.43,1.02-.69,1.34,1.23,1.55,2.47.73,4.29-4.16,3.45-5.54,6.16-.74,1.46-.61-1.41-1.29-2.02-3.97-3.53-1.73-8.12-2.32-13.04Z"/>
  <path class="cls-2" d="M757.25,1135.32c1.72,4.53,9.38,5.24,3.46,11.72-1.44,1.58-1.83,5.58-4.81,3.11-3.42-2.84.32-3.48,2.27-4.83,5.43-3.76-3.58-5.1-.91-10.01Z"/>
  <path class="cls-2" d="M1002.02,583.43c6.02.56,10.36-4.14,15.88-5.13,2.57,8.04-8.09,5.87-8.73,11.41-3.81-.54-5.21-3.64-6.87-6.45-.01.01-.28.17-.28.17Z"/>
  <path class="cls-2" d="M576.76,558.62c-2.01,5.64-3.7,11.43-8.15,16.11-3.35-1.62-2.55-4.58-.79-5.85,4-2.88,6.29-6.46,7.17-11.15.35.08.75.1,1.04.27.35.21.61.57.92.88.01.02-.19-.27-.19-.27Z"/>
  <path class="cls-2" d="M1059.19,995.14c-.29-.75-1-1.67-.79-2.23,1.38-3.6-6.65-5.41-1.7-9.74,2.44-2.14,4.06,1.13,4.24,1.33,3.75,4.17,2.68,7.69-2.07,10.33l.31.3Z"/>
  <path class="cls-2" d="M968.17,1151.3c1.38,5.69-8.65,5.15-2.33,10.14-1.06,1.15-2.11,2.3-3.17,3.44.89-3.18-6.15-2.33-3.23-7.28,2.43-4.13,5.76-3.2,8.73-6.3Z"/>
  <path class="cls-2" d="M893.48,1040.71c-2.05-3.15-8.86-1.86-7.63-8.17.06-.29-1.28-.85-1.97-1.28.41,0,.9.15,1.21-.02.32-.18.59-.64.68-1.03.36-1.5.64-3.02,1.04-5.01,5.33,4.23,2.72,11.03,6.32,15.29l.35.22Z"/>
  <path class="cls-2" d="M1078.12,564.86c.73,9.79-6.89,13.19-7.76,20.44-5.04-9.85,4.19-12.54,7.76-20.44Z"/>
  <path class="cls-2" d="M816.15,754.95c3.72,6.61-2.08,9.02-4.07,12.86-2.67-1.58-4.97-3.96-2.73-6.75,1.77-2.2,6.22-1.5,6.8-6.1Z"/>
  <path class="cls-2" d="M422.64,985.79c-3.66,1-6.91,2.58-6.81,7.25-4.59-.24,2.33,8.13-3.99,5.74-4.67-1.77-1.47-6.16-.2-8.37,2.2-3.84,4.5-9.94,11-4.61Z"/>
  <path class="cls-2" d="M424.34,749.3c-2.99-.76-6.21,5.59-9.96,1.13-1.98-2.36.7-4.98,2.37-6.18,6-4.27,4,5.8,7.58,5.04Z"/>
  <path class="cls-2" d="M980.27,713.19c-1.88-7.3,3.08-8.52,12.24-10.75-7.06,4.78-7.92,8.75-5.83,13.62-1.75-3.22-.38-11.64-6.73-3.22l.32.34Z"/>
  <path class="cls-2" d="M672.63,590.62c1.84-3.43,1.12-7.96,7.02-7.4,5.79.55,5.46,3.09,4.27,7.01-3.67-3.52-7.26-5.25-11.29.39Z"/>
  <path class="cls-2" d="M889.93,1204.16c-1.72-7.4-4.6-15.18,6.05-18.45-4.6,5.38-3.77,12.54-6.07,18.68v-.23Z"/>
  <path class="cls-2" d="M497.47,588.84c-4.19-2.18-5.25-11.25-12.88-5.86l.24.29c1.22-2.47,2.44-4.94,3.67-7.41,2.69,1.6,5.39,3.03,5.99,6.69.35,2.13-.51,5.07,2.66,6.05l.32.23Z"/>
  <path class="cls-2" d="M987.49,783.82c-.68,1.77-1.61,3.48-1.99,5.32-.52,2.54.69,5.96-2.69,7-1.77.55-4.15-.17-5.15-2.38-1.75-3.85,1.95-4.37,3.7-6.28,1.85-2.01,2.53-5.44,6.41-3.43l-.28-.22Z"/>
  <path class="cls-2" d="M526.92,1289.77c-3.24-3.61-4.39,5.12-5.97,1.6-2.23-4.98,2.54-8.51,5.75-13.1,2.59,4.29-3.13,8.06.11,11.42l.11.08Z"/>
  <path class="cls-2" d="M431.43,877.6c3.55,2.47,2.81,6.54,3.73,9.99-3.78.34,1.03,3.8-1.61,4.47-1.13.29-2.66.79-3.43.29-1.84-1.19-2.89-3.8-1.03-5.05,4.15-2.78,1.53-6.74,2.55-9.99l-.2.28Z"/>
  <path class="cls-2" d="M656.56,1254.59c3.3,3.44,1.18,8.33-1.33,7.99-5.28-.72-6.86-6.02-7.1-11.1,4.23-1.78,3.36,7.97,8.58,3.4l-.15-.29Z"/>
  <path class="cls-2" d="M457.85,1051.09c-.63,3.65-1.26,7.3-1.88,10.86q-6.71-7.92,2.15-10.72l-.27-.14Z"/>
  <path class="cls-2" d="M987.82,829.09c4.21,5.17,5.42-3.65,9.93-1.73-1.91,4.17-4.41,7.25-8.8,10.5-.36-3.83-.6-6.41-.84-8.99l-.29.21Z"/>
  <path class="cls-2" d="M792.66,1043.92c1.77,7.67,2.14,11.48.52,15.1-.13.29-3.7-.96-5.67-1.5,1.26-3.32,2.52-6.64,5.15-13.6Z"/>
  <path class="cls-2" d="M783.72,812.16c-6.46-3.07-1.51,9.93-8.92,5.11,1.96-2.87,1.8-8.52,8.56-6.93.19.05.38.58.38.88,0,.4-.19.8-.31,1.2l.28-.26Z"/>
  <path class="cls-2" d="M264.11,1184.23c-2.3-3.58.18-8.22-4.99-11.51,10.84,1.21,3.98,7.86,4.99,11.51Z"/>
  <path class="cls-2" d="M697.17,878.57c1.64,5.5-3.3,8.43-4.21,15.66-4-9.13,1.96-11.51,4.27-15.36l-.06-.3Z"/>
  <path class="cls-2" d="M549.24,585.22c-1.72-2.23-5.19-2.83-4.06-6.11.32-.95-.33-4.05,2.23-2.47,2.06,1.27,6.53.97,5.12,5.37-.41,1.28-2.14,2.14-3.29,3.21Z"/>
  <path class="cls-2" d="M484.6,582.99c-2.99,2.58-5.98,5.16-8.97,7.74,1.08-5.41,1.83-11.34,9.21-7.45,0,0-.24-.29-.24-.29Z"/>
  <path class="cls-2" d="M656.71,1254.88c2.06-2.08-1.05-6.49,3.22-7.28.45-.08,5.15-.09,3.49,2.96-1.16,2.12-1.6,7.91-6.85,4.05,0-.01.14.28.14.28Z"/>
  <path class="cls-2" d="M737.07,563.67c-2.82,3.04-2.45,8.72-9.06,10.05,2.24-5.03,1.54-11.15,9.31-9.9l-.25-.15Z"/>
  <path class="cls-2" d="M251.06,859.86c-.59-3.42-.78-6.62,5.07-7.15-1.7,2.91.66,7.55-5.37,6.95l.3.19Z"/>
  <path class="cls-2" d="M223.55,1159.55c1.08-3.65,3.81-4.94,7.32-5.13l-.34-.31c-1.1,3.59.08,10.41-7.28,5.15l.3.3Z"/>
  <path class="cls-2" d="M597.57,811.53c-.79-6.85,1-10.07,7.93-11.78-2.86,4.25-4.91,7.31-7.93,11.78Z"/>
  <path class="cls-2" d="M916.43,715.4c-.48-6.45,2.72-8.79,8.95-7.74-3.88,1.5-7.34,3.51-9.15,7.48l.19.26Z"/>
  <path class="cls-2" d="M313.79,582.64c2.11-3.88,3.91-8.03,8.49-9.76,0,0-.3-.3-.31-.31-.95,4.94-.15,11.4-8.56,9.9l.37.17Z"/>
  <path class="cls-2" d="M783.68,770.32q-5.75-3.9,2.06-8.32c2.81,3.71-2.64,5.19-2.22,8.26l.16.06Z"/>
  <path class="cls-2" d="M458.13,1051.23q.52-5.18,8.15-6.28c-3.49,2.5-5.99,4.3-8.46,6.12.04.03.31.16.31.16Z"/>
  <path class="cls-2" d="M585.67,861.39c-.54,5.16-4.13,5.43-7.89,5.47,3.21-1.1,5.37-3.53,7.89-5.47Z"/>
  <path class="cls-2" d="M725.02,576.95c-.02,4.82-.12,9.56-7.18,8.25l.25.26c.12-4.67,3.69-6.4,7.07-8.29l-.14-.22Z"/>
  <path class="cls-2" d="M1058.88,994.83c-1.17,2.93-.1,6.88-5.41,9.19.57-4.53-1.14-8.87,5.71-8.9.01.01-.3-.29-.3-.29Z"/>
  <path class="cls-2" d="M772.12,1005.9c-1.09.55-2.34,1.24-3.65,1.8-1.55.67-3.67,3.39-4.19-.74-.16-1.29.67-2.71,1.05-4.07,2.23.99,4.45,1.98,6.79,3.01Z"/>
  <path class="cls-2" d="M313.41,582.47c.09,8.68-3.72,4.81-8.28,1.96,3.71-.27,6.82,1.27,8.68-1.77-.03-.02-.4-.19-.4-.19Z"/>
  <path class="cls-2" d="M928.43,884.6c-3.53,2.89,1.83,5.27,1.19,8.53-6.59-2.93,1.25-5.66-.89-8.18l-.3-.35Z"/>
  <path class="cls-2" d="M591.76,859.46c-.31,2.65,8.38,4.36.68,7.83-2.44-2.58,4.26-5.73-.41-8.12l-.27.29Z"/>
  <path class="cls-2" d="M561.73,1271.86c-.43,2.81-2.07,5.26-4.52,5.87-2.05.5-1.6-2.26-1.3-3.42.86-3.37,2.42-5.86,6.06-2.28l-.24-.17Z"/>
  <path class="cls-2" d="M565.93,1268.54c-1.74-4.29.91-7.85,1.51-11.76,3.37,4.56,1.89,8.33-1.49,11.8l-.02-.04Z"/>
  <path class="cls-2" d="M314.34,845.52c-1.7.04-1.67-1.26-1.36-2.24.34-1.1.94-2.35,1.82-2.99,1.88-1.37,1.73.72,1.96,1.57.54,1.99-.88,2.9-2.41,3.67Z"/>
  <path class="cls-2" d="M697.23,878.88c1.1-1.96,2.2-3.93,3.6-6.42-.14,5.62-.78,6.58-3.65,6.14,0-.03.05.27.05.27Z"/>
  <path class="cls-2" d="M983.75,820.71c-2.41-3.18-.94-5.81-.5-8.65,2.15,2.5,2.47,5,.5,8.65Z"/>
  <path class="cls-2" d="M556.6,571.89c-4.51-4.75-.23-6.46,3.76-8.24-1.26,2.68-2.52,5.36-3.77,8.04,0,0,.02.2.02.2Z"/>
  <path class="cls-2" d="M914.29,763.15c-.98-.32-2.77.02-2.14-1.75.29-.81,1.66-1.36,2.66-1.7.27-.09,1.15.91,1.4,1.54.8,1.99-1,1.54-1.92,1.91Z"/>
  <path class="cls-2" d="M928.72,884.95c.81-1.55.09-4.54,3.36-3.7.49.13,1.16,1.38,1.01,1.9-.77,2.63-2.59,2.56-4.66,1.47,0-.01.29.34.29.34Z"/>
  <path class="cls-2" d="M783.44,812.42c1.86-.35,3.97-1.57,5.26.73.27.48-.84,2.46-1.62,2.69-3.33.98-1.61-2.96-3.34-3.7-.02.02-.3.28-.3.28Z"/>
  <path class="cls-2" d="M596.83,813.23c-.49,1-.16,2.97-2.06,2.34-1.81-.61-4.29-1-4.3-3.54,0-.6,2.08-1.78,3.1-1.67,1.42.15,3.51.44,3.25,2.87Z"/>
  <path class="cls-2" d="M556.58,571.69c-1.06.96-2.04,2.59-3.19,2.71-1.37.14-1.63-1.55-.81-2.63,1.26-1.66,2.75-3.23,4.01.1,0,.01-.02-.19-.02-.19Z"/>
  <path class="cls-2" d="M717.84,585.2c-.47,1.66,1.56,4.21-1.64,4.83-.57.11-1.8-.53-1.9-1.01-.68-3.14,2.67-2.19,3.79-3.56,0,0-.26-.26-.26-.26Z"/>
  <path class="cls-2" d="M775.1,776.98c2.87-1.34,5.58-1.03,8.19.73-2.97,2.63-5.25-1.16-7.95-.78l-.24.05Z"/>
  <path class="cls-2" d="M1081.87,566.3c-2.69-.59-3.11-1.65-2.47-2.78.54-.94,1.59-1.59,2.42-2.36.48.88,1.41,1.81,1.32,2.62-.12,1.09-1.03,2.09-1.27,2.52Z"/>
  <path class="cls-2" d="M245.71,867.02c-.56,1.65-.98,3.19-2.55,2.54-.84-.35-1.8-1.83-1.68-2.66.12-.82,1.52-1.45,2.36-2.17.68.83,1.36,1.66,1.87,2.29Z"/>
  <path class="cls-2" d="M242.42,894.62c2.45,2.16,1.39,4.79.99,7.33-.64-.26-1.59-.34-1.86-.81-1.39-2.4-.82-4.52,1.24-6.3-.03-.02-.37-.22-.37-.22Z"/>
  <path class="cls-2" d="M767.02,990.02s-1.03,1.19-1.94,1.14c-1.42-.08-1.42-1.44-.48-2.26.76-.65,1.86-1.21,2.83-1.23,1.13-.02,1.26.82-.41,2.35Z"/>
  <path class="cls-2" d="M696.24,1139.83c-1.71-2.38.89-3.82,1.24-5.75.73.16,2.04.18,2.11.5.71,3.01-3.07,2.83-3.67,5,.02.02.32.26.32.26Z"/>
  <path class="cls-2" d="M987.78,784.04c-1.35-2.6-.51-4.48,2.06-5.54.51-.21,1.96.39,1.97.66.1,2.9-1.94,3.97-4.32,4.65,0,0,.29.23.29.23Z"/>
  <path class="cls-2" d="M988.11,828.87c-1.48-.22-2.96-.43-4.44-.65,1.07-1.41,1.22-3.87,3.91-3.44l-.26-.29c-.19,1.57-1.56,3.26.48,4.6.01-.01.31-.22.31-.22Z"/>
  <path class="cls-2" d="M737.32,563.82c-1.68-1.6-2.25-3.39-.54-5.24.38-.41,1.99-.47,2.14-.2,1.32,2.38-1.3,3.46-1.88,5.27.04.03.29.18.29.18Z"/>
  <path class="cls-2" d="M421.38,760.76c-.47.59-1.06,1.34-1.65,2.09-.28-.68-.88-1.43-.76-2.04.2-.95.88-1.79,1.36-2.68.29.74.59,1.47,1.05,2.63Z"/>
  <path class="cls-2" d="M920.69,886.97c-.36,1.44-.88,2.87-1.03,4.33-.09.82.43,1.71.67,2.56-.32,0-.64.01-.96.02.58-1,1.41-1.95,1.67-3.03.26-1.11-.03-2.36-.08-3.54,0,0-.27-.34-.27-.34Z"/>
  <path class="cls-2" d="M223.25,1159.25c-1.45,1.21.65,4.23-2.35,4.61-.36.05-.76-.22-1.14-.34,1.26-1.33,2.52-2.65,3.79-3.98,0,0-.3-.29-.3-.29Z"/>
  <path class="cls-2" d="M875.26,1167.44c-.46.35-.92.69-1.38,1.04-.64-.93-1.29-1.85-1.93-2.78.35-.2.69-.54,1.05-.58,1.67-.17,2.03,1.03,2.26,2.32Z"/>
  <path class="cls-2" d="M925.2,699.03c2.6-.59,1.92-2.93,2.48-4.62.89,2.57.52,4.39-2.68,4.54l.2.08Z"/>
  <path class="cls-2" d="M524.97,1148.12c-.31.65-.72,1.53-1.13,2.4-.15-.75-.48-1.52-.39-2.24.11-.94.56-1.85.86-2.77.19.75.38,1.5.66,2.61Z"/>
  <path class="cls-2" d="M250.76,859.67c2.78,1.67,1.14,3.66-.42,4-1.23.27-3.92-.72-3.49-3.16.08-.45,2.75-.44,4.22-.65,0,0-.31-.2-.31-.2Z"/>
  <path class="cls-2" d="M657.71,1290.23c.23-1.32.88-2.07,2.29-1.44,1.09.48,2.13,1.07,3.2,1.61-1.08.51-2.11,1.17-3.24,1.49-1.29.37-2.19-.18-2.25-1.66Z"/>
  <path class="cls-2" d="M695.23,824.57c2.74-1.25,2.12,1,2.27,2.28.03.22-.8.54-1.23.82-.27-1.12-.55-2.24-.83-3.36,0,0-.21.26-.21.26Z"/>
  <path class="cls-2" d="M273.73,1182.33c-.44.43-.89.85-1.34,1.28-.27-.7-.77-1.41-.73-2.09.02-.44.84-.83,1.3-1.24.26.68.51,1.37.77,2.06Z"/>
  <path class="cls-2" d="M1014.89,1179.44c1.43,1.86.63,3.42-.69,4.87-.07.07-.85-.24-.96-.51-.79-2.02-.45-3.58,1.94-4.15,0,0-.29-.21-.29-.21Z"/>
  <path class="cls-2" d="M862.19,1270.34c1.39,1.69,1.44,3.42.08,5.12-.16.19-.98.2-1.11.02-1.48-2.1.13-3.43,1.31-4.84l-.28-.29Z"/>
  <path class="cls-2" d="M719.72,752.46l.51-.53-.62-.38-.07.04c1.53.03,3.06.05,4.59.11,0,0,0,.6,0,.6-1.54.04-3.08.06-4.62.07l.22.09Z"/>
  <path class="cls-2" d="M526.8,1289.69c.94.13,1.89.27,2.83.4-.9-.11-1.8-.21-2.71-.32,0,0-.12-.08-.12-.08Z"/>
  <path class="cls-2" d="M240.01,564.54c.24,1.54.48,3.07.72,4.61-.65.05-1.3.11-1.94.16.53-1.49,1.05-2.99,1.55-4.51-.03-.02-.32-.26-.32-.26Z"/>
  <path class="cls-2" d="M648.15,1290.07c1.12,1.03,2.24,2.06,3.35,3.09-.47.4-1.01,1.19-1.4,1.12-2.58-.44-3.28-1.89-1.91-4.21h-.04Z"/>
  <path class="cls-2" d="M657.42,1296c-.44.65-.88,1.29-1.33,1.93-.46-.63-1.05-1.2-1.34-1.9-.91-2.2.98-1.48,1.84-1.56,1.2-.11,1.48.53.83,1.53Z"/>
  <path class="cls-2" d="M763.92,997.4c-.22.56-.43,1.11-.65,1.65-.54-.28-1.54-.55-1.54-.84,0-.65.47-1.3.76-1.95.48.38.96.75,1.43,1.14Z"/>
  <path class="cls-2" d="M1050.81,1004.96c-.2.57-.4,1.14-.6,1.7-.54-.31-1.5-.61-1.51-.94-.03-.66.47-1.33.76-2,.45.41.91.82,1.36,1.25Z"/>
  <path class="cls-2" d="M568.07,1374.8c-.45.42-.9.83-1.36,1.24-.35-.68-.89-1.34-.96-2.05-.03-.32.91-.72,1.41-1.08.3.63.6,1.25.91,1.89Z"/>
  <path class="cls-2" d="M1019.77,1043.4c-.57.38-1.19,1.1-1.72,1.05-1.21-.13-1.35-.89-.47-1.75.48-.47.96-.95,1.44-1.43.25.7.5,1.41.76,2.13Z"/>
  <path class="cls-2" d="M730.43,807.13c-1.25-.75-2.51-1.51-3.76-2.26.63-.23,1.32-.73,1.89-.63,1.76.32,2.63,1.3,1.6,3.16-.02.02.27-.26.27-.26Z"/>
  <path class="cls-2" d="M561.97,1272.02c-.23-.88-2.46-.96-.95-2.57,1.46-1.56,2.9-2.61,4.91-.91,0,0,.02.04.02.04-.15,2.75-3.17,1.72-4.24,3.26.02.02.26.18.26.18Z"/>
  <path class="cls-2" d="M862.47,1270.63c.6-1.29,1.2-2.57,1.79-3.86.32.61.93,1.23.89,1.82-.1,1.88-.99,2.81-2.96,1.75-.01-.01.27.28.27.28Z"/>
  <path class="cls-2" d="M990.82,814.64c.89.29,1.61.53,2.33.77-.67,1.03-1.22,2.17-2.07,3.01-.25.25-1.36-.38-2.08-.61.61-1.06,1.21-2.11,1.82-3.17Z"/>
  <path class="cls-2" d="M889.92,1204.39c.56-3.03,2.64-2.49,4.62-1.84.26.08.17,1.21.24,1.86-1.6-.11-3.21-.23-4.83-.29-.02.05-.03.28-.03.28Z"/>
  <path class="cls-2" d="M230.87,1154.42c.49-1.72-1.07-4.17,1.77-5.01.22-.07.89.47.91.76.15,2.16-.13,4.08-3.02,3.94,0,0,.34.31.34.31Z"/>
  <path class="cls-2" d="M1030.79,1056.84c-.58.32-1.13.61-1.67.91-.27-.67-.78-1.35-.73-2,.02-.36.96-.66,1.48-.99.3.68.6,1.36.92,2.08Z"/>
  <path class="cls-2" d="M979.95,712.85l-1.65,4.17c-.32-.67-.9-1.33-.92-2-.08-2.07.82-2.93,2.88-1.83,0,.01-.31-.33-.31-.33Z"/>
  <path class="cls-2" d="M725.16,577.17c.97-.27,1.94-.55,2.91-.82-.04.4-.07.81-.11,1.21-.97-.19-1.94-.39-2.92-.59,0-.01.13.21.13.21Z"/>
  <polygon class="cls-2" points="412.67 756.56 412.89 757.16 412.24 757.04 412.67 756.56"/>
  <path class="cls-2" d="M451.34,842.56c.82.16,1.64.31,2.46.47-.14.34-.29.68-.43,1.02-.59-.6-1.18-1.2-1.78-1.79,0,0-.26.31-.26.31Z"/>
  <path class="cls-2" d="M719.5,752.37c.43.87.87,1.75,1.3,2.62-.59.18-1.18.36-1.77.54.25-1.01.5-2.03.72-3.06-.03-.02-.24-.11-.24-.11Z"/>
  <path class="cls-2" d="M519,1145.79c-.89.04-1.77.07-2.66.11.11-.19.25-.55.31-.53.72.15,1.43.35,2.14.54l.21-.12Z"/>
  <path class="cls-2" d="M431.63,877.32c-.96.9-1.82.85-2.38-.38-.12-.25.21-.7.33-1.06.62.58,1.23,1.15,1.85,1.73,0,0,.21-.29.21-.29Z"/>
  <path class="cls-2" d="M518.79,1145.91c.12.71.24,1.42.36,2.14-.4-.15-.8-.29-1.21-.44.33-.59.67-1.19,1.03-1.8.02-.02-.18.1-.18.1Z"/>
  <path class="cls-2" d="M920.96,887.31c.8-.4,1.59-.81,2.39-1.21.07.37.14.74.2,1.1-.95-.07-1.89-.13-2.85-.22-.01-.02.25.32.25.32Z"/>
  <path class="cls-2" d="M1049.57,978.1c1.05-.13,2.09-.27,3.14-.4-.73,3.01-2.04.51-3.11.33l-.03.07Z"/>
  <path class="cls-2" d="M943.31,748.78l.42-.27s-.14.59-.15.58c-.01-.01-.26-.3-.26-.3Z"/>
  <path class="cls-2" d="M1049.59,978.03c.31.63.62,1.27.93,1.9-1.12.33-1.24.06-.45-.9.08-.1-.33-.6-.51-.92,0-.01.03-.09.03-.09Z"/>
  <path class="cls-2" d="M871.14,1266.66c.27.02.63-.07.79.08.21.19.43.65.34.84-.56,1.13-1.16,1.09-1.55-.11-.07-.2.28-.54.43-.81Z"/>
  <path class="cls-2" d="M397.5,826.02l.48.25s-.69-.11-.69-.1c0,0,.22-.14.22-.14Z"/>
  <path class="cls-2" d="M987.58,824.78c.23-.79.46-1.58.7-2.36,1.37.42,1.34.78-.05,1.23-.36.11-.61.55-.9.84,0,0,.26.29.26.29Z"/>
  <path class="cls-2" d="M592.04,859.17l-2.39.04c1.04-2.5,1.37.34,2.1.26.02-.02.29-.3.29-.3Z"/>
  <path class="cls-2" d="M869.86,1271.87c-.12.26-.25.53-.37.79-.41-.25-.81-.49-1.22-.74.26-.27.51-.74.77-.75.27,0,.55.45.82.7Z"/>
  <path class="cls-2" d="M496.49,1010.78c.34-.09.82-.07,1.01-.29.87-.99,1.16-.89.71.28-.08.2-1.08.03-1.66.04,0,0-.06-.03-.06-.03Z"/>
  <path class="cls-2" d="M893.14,1040.49l.52-.23s-.23.43-.2.44c.03.01-.32-.21-.32-.21Z"/>
  <path class="cls-2" d="M648.19,1290.08l-1.96,1.19c-.58-1.18-.31-1.37.9-.71.19.11.67-.31,1.03-.49,0,0,.04,0,.04,0Z"/>
  <path class="cls-2" d="M1014.07,1048.56c-1.67-.5-2.51-1.45-1.32-3.08.22-.29,1.15-.06,1.76-.07-.26,1-.51,2.01-.74,3.03.03.02.3.12.3.12Z"/>
  <path class="cls-2" d="M775.34,776.92c.14-1.03.28-2.07.43-3.1.39.15.78.29,1.17.44-.59.9-1.18,1.8-1.8,2.7-.03,0,.21-.04.21-.04Z"/>
  <path class="cls-2" d="M1036.36,1055.11l-.48.18s.28-.57.29-.56.19.38.19.38Z"/>
  <path class="cls-2" d="M649.34,1297.86c-.31.24-.63.68-.93.66-.29-.02-.56-.5-.83-.77.31-.24.63-.68.93-.66.29.02.56.5.83.77Z"/>
  <path class="cls-2" d="M783.52,770.27c-.38.67-.77,1.34-1.15,2.01-.25-.38-.5-.75-.75-1.13.67-.28,1.33-.56,2.03-.84.03,0-.13-.05-.13-.05Z"/>
  <path class="cls-2" d="M719.6,751.55c-.02-.71-.04-1.42-.07-2.13.34.1.69.21,1.03.31-.34.62-.68,1.24-1.03,1.86,0,0,.06-.04.06-.04Z"/>
  <path class="cls-2" d="M299.18,723.7c-.14.25-.28.49-.42.74-.38-.27-.75-.54-1.13-.81.27-.24.55-.68.81-.66.26.01.49.48.74.74Z"/>
  <path class="cls-2" d="M916.23,715.14c-.3.56-.59,1.12-.89,1.67-.2-.5-.41-.99-.61-1.49.56.02,1.13.04,1.69.07,0,0-.19-.26-.19-.26Z"/>
  <path class="cls-2" d="M796.17,1063.77c0,.27.1.63-.03.78-.18.22-.62.47-.82.38-1.16-.49-1.15-1.09.02-1.55.2-.08.55.24.83.38Z"/>
  <polygon class="cls-2" points="793.18 1069.8 792.87 1068.87 793.68 1068.96 793.18 1069.8"/>
  <path class="cls-2" d="M1007.38,1089.78c-.28.19-.59.56-.84.53s-.46-.47-.68-.72c.28-.19.59-.56.84-.53.25.03.46.47.68.72Z"/>
  <path class="cls-2" d="M925,698.95c.22.88.44,1.75.66,2.63-.24-.05-.7-.13-.69-.16.07-.79.19-1.57.26-2.37-.03-.02-.23-.1-.23-.1Z"/>
  <path class="cls-2" d="M1176.69,801.99c.25.26.5.52.75.79-.28.23-.58.64-.85.63-.27-.01-.52-.46-.78-.71.28-.23.57-.45.88-.71Z"/>
  <path class="cls-2" d="M616.7,590.76c-.35.61-.71,1.22-1.06,1.83-.22-.52-.43-1.03-.65-1.55.63-.01,1.27-.02,1.9-.03,0,0-.19-.25-.19-.25Z"/>
  <path class="cls-2" d="M497.15,588.61l.55-.22s-.27.43-.25.44-.3-.22-.3-.22Z"/>
  <path class="cls-2" d="M564.73,559.98c-.24-.15-.47-.3-.71-.45.27-.39.55-.77.82-1.16.23.29.65.58.63.85-.02.27-.48.51-.74.76Z"/>
  <path class="cls-2" d="M443.35,571.01c-1.57-1.36-2.71-2.65.51-3.25,0,0-.31-.27-.32-.28,1.05,1.38.9,2.63-.48,3.75-.02.02.3-.22.3-.22Z"/>
  <path class="cls-2" d="M441.63,583.39l.33-.05s-.19.27-.16.3-.17-.24-.17-.24Z"/>
  <path class="cls-2" d="M503.28,582.03c-.8-.1-1.59-.21-2.39-.31.28-.43.56-.87.84-1.3.52.58,1.03,1.17,1.55,1.77,0,.02,0-.16,0-.16Z"/>
  <path class="cls-2" d="M724.21,799.65c.28.01.56.01.85.01-.16.51-.31,1.03-.47,1.54-.27-.27-.63-.5-.78-.82-.07-.15.26-.49.41-.73Z"/>
  <path class="cls-2" d="M721.69,739.14c-.58.46-1.16.92-1.75,1.38-.24-.47-.47-.94-.71-1.41.79.1,1.57.2,2.37.27.02-.03.08-.25.08-.25Z"/>
  <path class="cls-3" d="M455.72,555.94c.05-.97.1-1.93.15-2.9.4.13.79.25,1.19.38-.53.87-1.06,1.73-1.63,2.62-.04.01.29-.09.29-.09Z"/>
</svg>